<?xml version="1.0" encoding="UTF-8"?>
<svg version="1.1" xmlns="http://www.w3.org/2000/svg" width="1167" height="187">
<path d="M0 0 C0.07358275 1.36715181 0.14630751 2.73434979 0.21875 4.1015625 C0.26555908 4.97756104 0.31236816 5.85355957 0.3605957 6.75610352 C0.45410191 8.68043174 0.53319715 10.60551045 0.59838867 12.53100586 C0.74610193 16.79466153 0.89579266 20.90678023 1.76953125 25.08984375 C2.39289957 29.07671022 2.53405089 31.2448693 1 35 C-3.83178775 39.55990734 -10.10984991 42.31708199 -15.95654297 45.33740234 C-21.39215121 48.30679847 -26.48425781 51.8029368 -31.625 55.25 C-33.57249587 56.55141313 -35.52278694 57.84865854 -37.4765625 59.140625 C-38.30236816 59.69266602 -39.12817383 60.24470703 -39.97900391 60.81347656 C-42 62 -42 62 -44 62 C-43.91766113 62.55405518 -43.83532227 63.10811035 -43.75048828 63.67895508 C-43.08069517 69.22752121 -43.03070251 74.53133446 -43.39247131 80.09294128 C-45.29700092 99.22939225 -45.29700092 99.22939225 -39.66705322 116.82470703 C-32.76440738 123.65503364 -22.97578114 126.69401094 -13.92724609 129.59130859 C-8.79780382 131.30343773 -4.34310826 134.03373168 0.23706055 136.8684082 C2.93650968 138.29528196 2.93650968 138.29528196 5.62768555 137.32446289 C6.41054932 136.88739014 7.19341309 136.45031738 8 136 C8.94963623 135.48203857 8.94963623 135.48203857 9.91845703 134.95361328 C10.52544434 134.57962402 11.13243164 134.20563477 11.7578125 133.8203125 C12.45688721 133.39161865 13.15596191 132.9629248 13.8762207 132.52124023 C14.61831787 132.06048096 15.36041504 131.59972168 16.125 131.125 C16.90254639 130.64683838 17.68009277 130.16867676 18.48120117 129.67602539 C22.75172557 127.04154729 26.99862953 124.3719297 31.23046875 121.67578125 C32.50543213 120.86439697 32.50543213 120.86439697 33.80615234 120.03662109 C35.44591139 118.99040818 37.08307237 117.94010923 38.71728516 116.88525391 C39.46671387 116.40620605 40.21614258 115.9271582 40.98828125 115.43359375 C41.64352783 115.01134521 42.29877441 114.58909668 42.97387695 114.15405273 C45.34290109 112.8046881 47.35570027 111.71699234 50 111 C52.59960938 111.84277344 52.59960938 111.84277344 55.34375 113.359375 C56.34277344 113.89820312 57.34179688 114.43703125 58.37109375 114.9921875 C59.40363281 115.57226562 60.43617188 116.15234375 61.5 116.75 C63.55110696 117.87157908 65.6031582 118.9914334 67.65625 120.109375 C68.56181641 120.61436523 69.46738281 121.11935547 70.40039062 121.63964844 C72.88912414 122.94197969 75.38089671 123.99187968 78 125 C78.66 125.33 79.32 125.66 80 126 C79.3125 128.4375 79.3125 128.4375 78 131 C76.33582919 131.34557838 74.66863811 131.67668011 73 132 C70.32321602 133.35511489 70.32321602 133.35511489 67.59765625 135.10546875 C66.55359619 135.75225586 65.50953613 136.39904297 64.43383789 137.06542969 C63.32129639 137.76571289 62.20875488 138.46599609 61.0625 139.1875 C59.8954407 139.91493345 58.728037 140.64181463 57.56030273 141.36816406 C51.11165392 145.38712092 44.68812173 149.44669242 38.27758789 153.52612305 C36.47391588 154.67131935 34.6658143 155.80957002 32.85327148 156.94067383 C28.40543909 159.73383936 24.13412331 162.61341507 19.97265625 165.8203125 C8.59838578 174.35755098 8.59838578 174.35755098 2.28125 173.48828125 C-1.24687924 171.9858404 -4.31509846 169.80937512 -7.45898438 167.63623047 C-12.16512841 164.60581374 -17.2288425 162.2158352 -22.22644043 159.70812988 C-25.39405394 158.10955736 -28.54134081 156.47233255 -31.6875 154.83203125 C-32.30695496 154.50919159 -32.92640991 154.18635193 -33.56463623 153.85372925 C-41.89635311 149.49991671 -50.23548448 145.1120533 -58.3634491 140.38679504 C-60.96912102 138.92833191 -60.96912102 138.92833191 -63.82072449 138.04368591 C-67.19566331 136.73812402 -69.39395051 135.53309566 -72 133 C-73.77466864 127.1907566 -73.70259204 121.44936806 -73.73046875 115.4140625 C-73.77733308 113.67047151 -73.82894772 111.92700234 -73.88508606 110.1836853 C-74.01982299 105.60020398 -74.08965599 101.01794771 -74.14599609 96.43292236 C-74.21469709 91.78499672 -74.34551286 87.13887285 -74.47070312 82.4921875 C-74.64615051 75.68349653 -74.79558243 68.87512159 -74.89916992 62.06494141 C-74.90994064 61.36442154 -74.92071136 60.66390167 -74.93180847 59.94215393 C-74.95955865 57.96149992 -74.97985753 55.98074599 -75 54 C-75.02405379 53.27236954 -75.04810759 52.54473907 -75.07289028 51.7950592 C-75.20707631 46.22810563 -75.20707631 46.22810563 -73.09838867 43.90527344 C-72.2138501 43.39512695 -71.32931152 42.88498047 -70.41796875 42.359375 C-69.433125 41.77027344 -68.44828125 41.18117187 -67.43359375 40.57421875 C-66.36238281 39.97222656 -65.29117188 39.37023438 -64.1875 38.75 C-61.96185478 37.43294171 -59.73659834 36.11522624 -57.51171875 34.796875 C-56.40231934 34.15298828 -55.29291992 33.50910156 -54.14990234 32.84570312 C-49.86463507 30.33472649 -45.68109735 27.67948715 -41.5 25 C-33.05849587 19.64783659 -24.57927515 14.35624388 -16.09375 9.07421875 C-10.20184094 5.4071997 -10.20184094 5.4071997 -4.42578125 1.5625 C-2 0 -2 0 0 0 Z " fill="white" transform="translate(76,12)"/>
<path d="M0 0 C4.09610773 1.00426348 7.59621173 2.72785103 11.2578125 4.78515625 C12.69060547 5.58083008 12.69060547 5.58083008 14.15234375 6.39257812 C15.13332031 6.94365234 16.11429688 7.49472656 17.125 8.0625 C19.08356113 9.1617967 21.04441227 10.25702594 23.0078125 11.34765625 C24.30162842 12.07480835 24.30162842 12.07480835 25.62158203 12.81665039 C27.7733112 13.88721406 29.65293776 14.53527217 32 15 C31.3125 17.4375 31.3125 17.4375 30 20 C28.33582919 20.34557838 26.66863811 20.67668011 25 21 C22.32321602 22.35511489 22.32321602 22.35511489 19.59765625 24.10546875 C18.55359619 24.75225586 17.50953613 25.39904297 16.43383789 26.06542969 C15.32129639 26.76571289 14.20875488 27.46599609 13.0625 28.1875 C11.8954407 28.91493345 10.728037 29.64181463 9.56030273 30.36816406 C3.11165392 34.38712092 -3.31187827 38.44669242 -9.72241211 42.52612305 C-11.52608412 43.67131935 -13.3341857 44.80957002 -15.14672852 45.94067383 C-19.59456091 48.73383936 -23.86587669 51.61341507 -28.02734375 54.8203125 C-39.40161422 63.35755098 -39.40161422 63.35755098 -45.71875 62.48828125 C-49.24687924 60.9858404 -52.31509846 58.80937512 -55.45898438 56.63623047 C-60.16529924 53.60570374 -65.22921014 51.21565142 -70.22698975 48.70785522 C-73.39182027 47.1106829 -76.53631272 45.47484049 -79.6796875 43.8359375 C-80.29872955 43.51330429 -80.91777161 43.19067108 -81.55557251 42.85826111 C-93.81815693 36.45037988 -105.91067438 29.7271833 -118 23 C-116.77142278 19.31426834 -115.74382228 18.94062212 -112.484375 16.96875 C-111.56269531 16.40542969 -110.64101562 15.84210938 -109.69140625 15.26171875 C-108.72074219 14.68035156 -107.75007813 14.09898437 -106.75 13.5 C-105.31720703 12.62794922 -105.31720703 12.62794922 -103.85546875 11.73828125 C-101.24219521 10.1499634 -98.62292763 8.5723103 -96 7 C-95.1946582 6.40123047 -94.38931641 5.80246094 -93.55957031 5.18554688 C-91 4 -91 4 -88.06469727 4.62426758 C-84.97988879 6.00902785 -81.96191224 7.44539847 -78.96484375 9.01171875 C-77.82466797 9.60533203 -76.68449219 10.19894531 -75.50976562 10.81054688 C-74.31899222 11.43616328 -73.12823706 12.06181441 -71.9375 12.6875 C-70.20983398 13.58758789 -70.20983398 13.58758789 -68.44726562 14.50585938 C-67.29806641 15.10591797 -66.14886719 15.70597656 -64.96484375 16.32421875 C-63.24370361 17.22019775 -63.24370361 17.22019775 -61.48779297 18.13427734 C-59.09296081 19.41534324 -56.74714798 20.71666155 -54.40673828 22.08837891 C-53.26317871 22.74628418 -52.11961914 23.40418945 -50.94140625 24.08203125 C-49.91861572 24.68893799 -48.8958252 25.29584473 -47.84204102 25.92114258 C-45.06622794 27.28784884 -45.06622794 27.28784884 -42.36352539 26.31860352 C-41.58356201 25.88346436 -40.80359863 25.4483252 -40 25 C-39.05036377 24.48203857 -39.05036377 24.48203857 -38.08154297 23.95361328 C-37.47455566 23.57962402 -36.86756836 23.20563477 -36.2421875 22.8203125 C-35.54295166 22.39161865 -34.84371582 21.9629248 -34.12329102 21.52124023 C-33.38135498 21.06048096 -32.63941895 20.59972168 -31.875 20.125 C-30.71085571 19.40775757 -30.71085571 19.40775757 -29.52319336 18.67602539 C-14.65313585 9.50782588 -14.65313585 9.50782588 0 0 Z " fill="white" transform="translate(124,123)"/>
<path d="M0 0 C5.6381716 0.04448867 11.27525884 0.1146686 16.9128418 0.20751953 C18.82616493 0.23555003 20.7396 0.25685265 22.65307617 0.27099609 C36.653606 0.38063219 48.48020605 0.6558099 59.12109375 10.83984375 C65.72060267 18.42722095 66.91653944 27.31091492 66.26074219 37.03857422 C65.26307408 44.54350452 61.12409119 50.50270338 55.375 55.1875 C53.13640473 56.80164501 51.46810607 57.883387 48.7890625 58.55078125 C48.19867187 58.69902344 47.60828125 58.84726563 47 59 C46.505 59.99 46.505 59.99 46 61 C45.01 60.505 45.01 60.505 44 60 C43.505 60.99 43.505 60.99 43 62 C35.74 62.33 28.48 62.66 21 63 C21.01160156 65.15402344 21.02320313 67.30804688 21.03515625 69.52734375 C21.04294737 71.60571139 21.04902381 73.68407743 21.05493164 75.76245117 C21.05997101 77.21070073 21.06680253 78.65894517 21.07543945 80.10717773 C21.08752247 82.18474588 21.09323211 84.26224697 21.09765625 86.33984375 C21.10551147 88.21724243 21.10551147 88.21724243 21.11352539 90.13256836 C21 93 21 93 20 94 C18.66956375 94.0983721 17.33406656 94.13078592 16 94.1328125 C15.195625 94.13410156 14.39125 94.13539062 13.5625 94.13671875 C12.716875 94.13285156 11.87125 94.12898438 11 94.125 C10.154375 94.12886719 9.30875 94.13273437 8.4375 94.13671875 C7.633125 94.13542969 6.82875 94.13414063 6 94.1328125 C5.2575 94.13168457 4.515 94.13055664 3.75 94.12939453 C2 94 2 94 1 93 C0.87472813 90.10934764 0.81389798 87.24143213 0.79467773 84.34936523 C0.78477814 83.44213715 0.77487854 82.53490906 0.76467896 81.60018921 C0.73296405 78.58635106 0.70826722 75.57249711 0.68359375 72.55859375 C0.66303284 70.47493569 0.64203661 68.39128189 0.62062073 66.30763245 C0.56531091 60.81181269 0.51594106 55.31595474 0.46777344 49.82006836 C0.4176233 44.21659936 0.36190345 38.61318612 0.30664062 33.00976562 C0.19895014 22.006558 0.09752952 11.00330205 0 0 Z M21 19 C20.67 27.25 20.34 35.5 20 44 C24.2384375 44.12375 24.2384375 44.12375 28.5625 44.25 C29.8764978 44.30462402 29.8764978 44.30462402 31.21704102 44.36035156 C36.98515712 44.44112473 40.29265279 43.37288468 45 40 C47.35328362 35.78370019 47.26359413 31.79571727 46.6171875 27.12109375 C45.64696446 23.78671964 43.67926991 22.09113749 41 20 C38.703463 18.8517315 37.41686833 18.88438825 34.8671875 18.90234375 C34.14128418 18.90484131 33.41538086 18.90733887 32.66748047 18.90991211 C31.74596191 18.91901611 30.82444336 18.92812012 29.875 18.9375 C25.481875 18.9684375 25.481875 18.9684375 21 19 Z " fill="white" transform="translate(538,23)"/>
<path d="M0 0 C6.6 0 13.2 0 20 0 C20 15.84 20 31.68 20 48 C25.28 42.39 30.56 36.78 36 31 C37.68300669 29.31699331 39.82008727 29.77190923 42.12890625 29.68359375 C43.16337891 29.64169922 44.19785156 29.59980469 45.26367188 29.55664062 C46.35228516 29.51732422 47.44089844 29.47800781 48.5625 29.4375 C50.2012207 29.37272461 50.2012207 29.37272461 51.87304688 29.30664062 C54.58189564 29.20017932 57.29083992 29.09816484 60 29 C59.16437188 33.30035834 57.20755126 35.01633765 54 38 C48.60277544 43.31912967 43.29348438 48.63648947 38.375 54.40625 C37.30150314 55.65053045 36.16203041 56.83796959 35 58 C35.36863579 61.01309633 36.51456853 63.04181849 38.265625 65.4765625 C38.73774414 66.13906006 39.20986328 66.80155762 39.69628906 67.48413086 C40.20901367 68.19061768 40.72173828 68.89710449 41.25 69.625 C41.77561523 70.36049072 42.30123047 71.09598145 42.84277344 71.85375977 C45.7668756 75.93707803 48.72459009 79.99557237 51.6875 84.05078125 C52.28272461 84.86788574 52.87794922 85.68499023 53.49121094 86.52685547 C54.65110874 88.11664322 55.81572738 89.70299887 56.98535156 91.28564453 C57.77377441 92.36434814 57.77377441 92.36434814 58.578125 93.46484375 C59.04637695 94.100271 59.51462891 94.73569824 59.99707031 95.39038086 C61 97 61 97 61 99 C42.71465651 100.95083681 42.71465651 100.95083681 36.91796875 96.78515625 C34.62107263 93.63571851 32.81109006 90.45060316 31 87 C29.4178661 84.53781634 27.74051572 82.14740331 26.0625 79.75 C24.96615234 78.10257813 24.96615234 78.10257813 23.84765625 76.421875 C23.23792969 75.62265625 22.62820313 74.8234375 22 74 C21.34 74 20.68 74 20 74 C20 82.58 20 91.16 20 100 C13.4 100 6.8 100 0 100 C0 67 0 34 0 0 Z " fill="white" transform="translate(731,18)"/>
<path d="M0 0 C9.16015994 6.38141654 13.48159355 14.29677257 16 25 C16.495 31.435 16.495 31.435 17 38 C1.49 38 -14.02 38 -30 38 C-26.87509333 45.58610146 -26.87509333 45.58610146 -21 49 C-15.34407771 49.64904026 -11.6697262 48.79010463 -6.56640625 46.36328125 C-4.40270056 44.48015585 -4.32725995 42.77940493 -4 40 C-3.26394531 40.40992188 -2.52789062 40.81984375 -1.76953125 41.2421875 C-0.79371094 41.78101563 0.18210937 42.31984375 1.1875 42.875 C2.15042969 43.40867188 3.11335938 43.94234375 4.10546875 44.4921875 C6.69964927 45.843542 9.27221901 46.95411506 12 48 C12.99 48.495 12.99 48.495 14 49 C11.14535215 54.70929571 7.95815439 58.05545846 3 62 C2.34 62.66 1.68 63.32 1 64 C-1.09799564 64.65562364 -2.80040399 65 -5 65 C-5.33 65.66 -5.66 66.32 -6 67 C-19.80563588 67.50559806 -29.62193713 67.75931733 -40.2109375 57.9296875 C-47.95203384 49.58012071 -50.36260384 40.11140267 -50.2109375 28.93359375 C-49.46058933 18.49819609 -45.35793171 9.86479406 -37.75 2.6875 C-26.89520786 -5.80241368 -11.96352316 -7.05327713 0 0 Z M-26 16 C-28.73225734 19.15814239 -28.73225734 19.15814239 -30 23 C-21.42 23 -12.84 23 -4 23 C-6.51540357 17.17375821 -6.51540357 17.17375821 -11 14 C-16.72574974 12.59041657 -21.03817111 12.42286754 -26 16 Z " fill="white" transform="translate(277,51)"/>
<path d="M0 0 C7.26798322 6.9212773 10.7530111 15.97725482 11.3359375 25.90234375 C11.3703563 28.08105361 11.39569862 30.20586091 11.1875 32.375 C9.63091518 33.93158482 8.10882264 33.53809399 5.94311523 33.58032227 C4.59182777 33.6102401 4.59182777 33.6102401 3.21324158 33.64076233 C2.23408279 33.65747482 1.25492401 33.67418732 0.24609375 33.69140625 C-1.25001686 33.7225779 -1.25001686 33.7225779 -2.77635193 33.75437927 C-5.97582843 33.81998637 -9.17538982 33.87881134 -12.375 33.9375 C-14.53842039 33.98067462 -16.70183206 34.02428855 -18.86523438 34.06835938 C-24.18089874 34.17567903 -29.49664834 34.27742427 -34.8125 34.375 C-32.71609939 40.01133181 -32.71609939 40.01133181 -28.8125 44.375 C-23.30320462 46.21143179 -18.65323531 46.0476093 -13.4375 43.625 C-10.30449872 42.05225832 -9.15779856 40.6091521 -7.8125 37.375 C-3.68291266 38.79454565 -0.35276106 40.90187064 3.22265625 43.3515625 C5.40953126 44.68297554 5.40953126 44.68297554 9.1875 44.375 C7.10029932 51.26276223 2.58187296 55.8198049 -3.5625 59.3125 C-7.46201768 61.375 -7.46201768 61.375 -9.8125 61.375 C-10.1425 62.035 -10.4725 62.695 -10.8125 63.375 C-32.66940451 64.18285273 -32.66940451 64.18285273 -43.0625 57.1875 C-51.25553004 48.80826474 -54.88368957 40.05904277 -55.1875 28.375 C-54.95495179 19.05285014 -52.81774885 10.68065554 -46.8125 3.375 C-44.47911127 1.16318278 -42.09273995 -0.92405309 -39.60546875 -2.9609375 C-39.01378906 -3.51007812 -38.42210937 -4.05921875 -37.8125 -4.625 C-37.8125 -5.285 -37.8125 -5.945 -37.8125 -6.625 C-23.77727463 -8.56089315 -11.46309626 -9.31376571 0 0 Z M-30.8125 12.375 C-33.54475734 15.53314239 -33.54475734 15.53314239 -34.8125 19.375 C-26.2325 19.375 -17.6525 19.375 -8.8125 19.375 C-11.32790357 13.54875821 -11.32790357 13.54875821 -15.8125 10.375 C-21.53824974 8.96541657 -25.85067111 8.79786754 -30.8125 12.375 Z " fill="white" transform="translate(479.8125,54.625)"/>
<path d="M0 0 C7.27883376 5.94551468 11.89597183 13.39737906 13.1640625 22.78125 C13.24269531 23.89113281 13.32132813 25.00101563 13.40234375 26.14453125 C13.53189453 27.82095703 13.53189453 27.82095703 13.6640625 29.53125 C13.71484375 32.45703125 13.71484375 32.45703125 12.71484375 35.45703125 C-2.46515625 35.45703125 -17.64515625 35.45703125 -33.28515625 35.45703125 C-30.02302104 43.03539423 -30.02302104 43.03539423 -26.28515625 46.45703125 C-21.08959793 48.18888402 -16.84429741 48.14998288 -11.91015625 45.95703125 C-11.04390625 45.46203125 -10.17765625 44.96703125 -9.28515625 44.45703125 C-8.62515625 44.45703125 -7.96515625 44.45703125 -7.28515625 44.45703125 C-6.62515625 42.80703125 -5.96515625 41.15703125 -5.28515625 39.45703125 C-3.36601072 40.38944629 -1.44993239 41.328176 0.46484375 42.26953125 C1.5321875 42.79160156 2.59953125 43.31367187 3.69921875 43.8515625 C6.26717617 45.21870045 8.45955158 46.63418588 10.71484375 48.45703125 C6.96184814 56.90127138 0.2356102 61.21374461 -8.12109375 64.609375 C-16.75214859 66.92164525 -27.08399756 66.60283534 -35.1796875 62.7109375 C-42.06376429 58.61114409 -48.47453162 52.35919726 -50.88671875 44.49609375 C-51.08394531 43.48675781 -51.08394531 43.48675781 -51.28515625 42.45703125 C-51.46433594 41.69519531 -51.64351562 40.93335938 -51.828125 40.1484375 C-53.52579617 30.15104059 -53.06867229 19.52921684 -48.28515625 10.45703125 C-45.54774614 6.82556793 -42.54274344 3.62285542 -39.28515625 0.45703125 C-38.59421875 -0.27515625 -37.90328125 -1.00734375 -37.19140625 -1.76171875 C-28.28799706 -10.08129783 -9.04960496 -6.11041702 0 0 Z M-28.28515625 14.45703125 C-31.36325826 17.49369683 -31.36325826 17.49369683 -32.28515625 21.45703125 C-23.70515625 21.45703125 -15.12515625 21.45703125 -6.28515625 21.45703125 C-9.46526466 14.68063805 -9.46526466 14.68063805 -13.28515625 12.45703125 C-18.99002018 11.01179905 -23.31767468 10.99134643 -28.28515625 14.45703125 Z " fill="white" transform="translate(841.28515625,52.54296875)"/>
<path d="M0 0 C5.46225174 4.14576823 8.436659 9.57612584 9.41906738 16.36965942 C9.58927828 19.28360718 9.64095749 22.1748828 9.64453125 25.09375 C9.6610675 26.14642563 9.67760376 27.19910126 9.69464111 28.28367615 C9.74286205 31.61495957 9.76443492 34.94578735 9.78515625 38.27734375 C9.81333751 40.54885073 9.84326793 42.82033672 9.875 45.09179688 C9.94861377 50.63273048 10.0004076 56.17353731 10.03515625 61.71484375 C9.37515625 61.71484375 8.71515625 61.71484375 8.03515625 61.71484375 C7.70515625 62.37484375 7.37515625 63.03484375 7.03515625 63.71484375 C6.04515625 63.38484375 5.05515625 63.05484375 4.03515625 62.71484375 C3.70515625 63.37484375 3.37515625 64.03484375 3.03515625 64.71484375 C1.05515625 64.71484375 -0.92484375 64.71484375 -2.96484375 64.71484375 C-3.29484375 65.37484375 -3.62484375 66.03484375 -3.96484375 66.71484375 C-4.95484375 66.38484375 -5.94484375 66.05484375 -6.96484375 65.71484375 C-7.29484375 65.05484375 -7.62484375 64.39484375 -7.96484375 63.71484375 C-9.28484375 63.71484375 -10.60484375 63.71484375 -11.96484375 63.71484375 C-12.29484375 64.37484375 -12.62484375 65.03484375 -12.96484375 65.71484375 C-30.22967651 66.5337291 -30.22967651 66.5337291 -36.96484375 61.71484375 C-41.55448887 57.5225705 -44.5546846 53.17258081 -45.30078125 46.8828125 C-45.38697186 40.30646877 -45.05830334 35.06115007 -40.96484375 29.71484375 C-39.05311698 27.89170919 -37.06006844 26.33388101 -34.96484375 24.71484375 C-34.96484375 24.05484375 -34.96484375 23.39484375 -34.96484375 22.71484375 C-26.62151831 21.52294012 -18.37161353 21.62200826 -9.96484375 21.71484375 C-9.63484375 20.06484375 -9.30484375 18.41484375 -8.96484375 16.71484375 C-9.62484375 16.38484375 -10.28484375 16.05484375 -10.96484375 15.71484375 C-11.45984375 14.22984375 -11.45984375 14.22984375 -11.96484375 12.71484375 C-13.73492089 12.63370269 -15.50606473 12.5755887 -17.27734375 12.52734375 C-18.26347656 12.49253906 -19.24960937 12.45773438 -20.265625 12.421875 C-23.01731291 12.41970004 -23.01731291 12.41970004 -24.421875 14.30859375 C-24.93105469 14.77265625 -25.44023437 15.23671875 -25.96484375 15.71484375 C-28.92578125 15.3515625 -28.92578125 15.3515625 -32.33984375 14.40234375 C-36.35334534 13.30901056 -39.79559037 12.5040388 -43.96484375 12.71484375 C-42.59903358 7.11502204 -39.8377488 3.78484321 -35.96484375 -0.28515625 C-35.46855469 -0.82785156 -34.97226562 -1.37054688 -34.4609375 -1.9296875 C-25.78378766 -9.79123056 -8.61478084 -5.63471749 0 0 Z M-25.96484375 37.71484375 C-27.0355079 40.76211865 -27.07221042 42.35144886 -26.15234375 45.46484375 C-25.17015131 47.85480537 -25.17015131 47.85480537 -22.96484375 48.71484375 C-17.27421591 49.09421894 -13.98108723 48.72458984 -8.96484375 45.71484375 C-8.96484375 42.41484375 -8.96484375 39.11484375 -8.96484375 35.71484375 C-11.23541752 35.66085388 -13.50635663 35.62205633 -15.77734375 35.58984375 C-17.04191406 35.56664062 -18.30648438 35.5434375 -19.609375 35.51953125 C-23.09864615 35.43902457 -23.09864615 35.43902457 -25.96484375 37.71484375 Z " fill="white" transform="translate(343.96484375,52.28515625)"/>
<path d="M0 0 C6.98451372 3.70390879 10.36198312 7.98180561 13.1960907 15.25431824 C14.62609633 19.94079078 14.66574802 24.48217189 14.671875 29.3515625 C14.68841125 30.38062714 14.70494751 31.40969177 14.72198486 32.46994019 C14.77012257 35.71960623 14.79175978 38.96880553 14.8125 42.21875 C14.84068827 44.43752305 14.87061964 46.65627469 14.90234375 48.875 C14.97587178 54.2811662 15.02771391 59.68720299 15.0625 65.09375 C14.4025 65.09375 13.7425 65.09375 13.0625 65.09375 C12.7325 65.75375 12.4025 66.41375 12.0625 67.09375 C11.0725 66.76375 10.0825 66.43375 9.0625 66.09375 C8.7325 66.75375 8.4025 67.41375 8.0625 68.09375 C7.0725 67.76375 6.0825 67.43375 5.0625 67.09375 C4.7325 67.75375 4.4025 68.41375 4.0625 69.09375 C1.1875 69.21875 1.1875 69.21875 -1.9375 69.09375 C-2.9275 68.10375 -2.9275 68.10375 -3.9375 67.09375 C-5.92241642 67.36051204 -5.92241642 67.36051204 -7.9375 68.09375 C-14.2826116 70.2087872 -21.59085555 70.00721055 -27.8125 67.53125 C-33.91190539 64.40959425 -37.83237701 59.57980461 -39.9375 53.09375 C-40.79946468 46.00749302 -40.88525541 39.61307695 -36.48828125 33.7421875 C-31.57173319 28.51603314 -26.20298008 25.4937072 -18.87402344 24.93701172 C-16.74559221 24.89828623 -14.62811254 24.91812701 -12.5 24.96875 C-11.40268555 24.98228516 -11.40268555 24.98228516 -10.28320312 24.99609375 C-8.50115702 25.01938847 -6.71928241 25.0552481 -4.9375 25.09375 C-5.4325 20.63875 -5.4325 20.63875 -5.9375 16.09375 C-7.87431161 16.01267417 -9.8120934 15.95452525 -11.75 15.90625 C-12.82894531 15.87144531 -13.90789063 15.83664063 -15.01953125 15.80078125 C-18.32915668 16.13307296 -18.83654242 16.69265563 -20.9375 19.09375 C-24.125 19.28125 -24.125 19.28125 -26.9375 19.09375 C-26.9375 18.43375 -26.9375 17.77375 -26.9375 17.09375 C-30.8975 16.76375 -34.8575 16.43375 -38.9375 16.09375 C-37.43090259 9.91670061 -34.27959997 5.19124941 -28.87109375 1.796875 C-19.87849911 -2.77394658 -9.55380521 -3.79342266 0 0 Z M-20.39453125 40.8828125 C-22.29105918 43.13998471 -22.29105918 43.13998471 -21.875 46.71875 C-21.2624155 50.34891924 -21.2624155 50.34891924 -17.9375 52.09375 C-12.23932562 52.56081347 -8.95321703 52.10318022 -3.9375 49.09375 C-3.9375 45.79375 -3.9375 42.49375 -3.9375 39.09375 C-6.18643954 38.98551227 -8.43687575 38.90805355 -10.6875 38.84375 C-11.94046875 38.79734375 -13.1934375 38.7509375 -14.484375 38.703125 C-17.97263084 38.80976057 -17.97263084 38.80976057 -20.39453125 40.8828125 Z " fill="white" transform="translate(643.9375,48.90625)"/>
<path d="M0 0 C0.495 1.485 0.495 1.485 1 3 C2.57273974 4.44615636 2.57273974 4.44615636 4.4375 5.8125 C7.76013028 8.52915878 9.08199743 10.71598799 10 15 C8 17 8 17 4.875 17.125 C3.92625 17.08375 2.9775 17.0425 2 17 C1.67 17.66 1.34 18.32 1 19 C0.01 18.67 -0.98 18.34 -2 18 C-2.33 18.66 -2.66 19.32 -3 20 C-5.4375 19.625 -5.4375 19.625 -8 19 C-8.495 18.01 -8.495 18.01 -9 17 C-12.78256075 15.63827813 -17.03191992 15.46294268 -21 15 C-21.33 15.66 -21.66 16.32 -22 17 C-22.99 17 -23.98 17 -25 17 C-24.34 18.98 -23.68 20.96 -23 23 C-21.74445313 23.15855469 -20.48890625 23.31710938 -19.1953125 23.48046875 C-6.57666381 25.18824631 3.24949367 26.88526999 11.72265625 37.1328125 C14.97107239 41.88126178 14.41236187 47.48862495 14 53 C12.20124783 58.84594456 7.87931674 62.52924073 3 66 C-0.4375 67.3125 -0.4375 67.3125 -3 68 C-3.33 68.66 -3.66 69.32 -4 70 C-31.28373367 70.98785277 -31.28373367 70.98785277 -42.44140625 60.78125 C-44.98363988 57.87584014 -46 55.88455021 -46 52 C-43.75376301 51.30030318 -41.50283586 50.61564957 -39.25 49.9375 C-37.99703125 49.55464844 -36.7440625 49.17179687 -35.453125 48.77734375 C-32.3130315 48.0704675 -30.88918728 47.75006791 -28 49 C-27.443125 49.495 -26.88625 49.99 -26.3125 50.5 C-22.20059778 53.16717982 -17.50084248 53.31100767 -12.70703125 52.71484375 C-8.75332956 51.8578483 -7.29955494 51.44933241 -5 48 C-4.76924898 45.9172483 -4.76924898 45.9172483 -6 44 C-10.63373493 41.13149742 -15.05685928 40.67942291 -20.4375 40.0625 C-28.50156995 39.07636127 -33.84817256 37.63013871 -39.375 31.5625 C-43.30953441 26.52672362 -44.65787445 22.46909871 -44 16 C-42.15307149 10.2933227 -39.13891382 6.79775451 -34.390625 3.2265625 C-33.93171875 2.82179687 -33.4728125 2.41703125 -33 2 C-33 1.34 -33 0.68 -33 0 C-22.03618138 -1.53878156 -10.96381862 -1.53878156 0 0 Z " fill="white" transform="translate(406,48)"/>
<path d="M0 0 C4.14209674 2.93789955 7.28721191 6.52179198 8.89453125 11.34375 C9.66035518 18.11582164 9.32193951 23.10075639 5.2578125 28.6875 C0.99868417 33.86191379 -1.25350166 34.86842215 -7.78515625 35.95703125 C-8.80802734 36.1281543 -8.80802734 36.1281543 -9.8515625 36.30273438 C-11.26137322 36.53684056 -12.6728839 36.76094728 -14.0859375 36.97460938 C-21.45333285 38.2441323 -26.21353719 41.89911881 -30.9140625 47.59375 C-32.40667325 49.78617497 -32.94548629 51.70403934 -33.10546875 54.34375 C-33.76546875 54.34375 -34.42546875 54.34375 -35.10546875 54.34375 C-35.0897583 54.97877441 -35.07404785 55.61379883 -35.05786133 56.26806641 C-34.99518285 59.1682023 -34.95637458 62.06819524 -34.91796875 64.96875 C-34.89283203 65.96777344 -34.86769531 66.96679688 -34.84179688 67.99609375 C-34.75417269 76.81692809 -37.15283084 81.95555322 -43.10546875 88.34375 C-46.4323146 90.47351887 -49.454968 90.71436952 -53.35546875 90.96875 C-54.97195312 91.08089844 -54.97195312 91.08089844 -56.62109375 91.1953125 C-57.4409375 91.24429688 -58.26078125 91.29328125 -59.10546875 91.34375 C-59.10546875 90.68375 -59.10546875 90.02375 -59.10546875 89.34375 C-60.40484375 89.0653125 -60.40484375 89.0653125 -61.73046875 88.78125 C-65.68416702 87.0972674 -67.26183459 85.15928961 -69.80859375 81.8046875 C-70.2365625 81.32257813 -70.66453125 80.84046875 -71.10546875 80.34375 C-71.76546875 80.34375 -72.42546875 80.34375 -73.10546875 80.34375 C-73.18712371 78.13604195 -73.24495363 75.92744575 -73.29296875 73.71875 C-73.34517578 71.87410156 -73.34517578 71.87410156 -73.3984375 69.9921875 C-72.87519681 63.47609676 -69.91181098 59.57790863 -65.10546875 55.34375 C-61.07916102 52.47901423 -57.67179465 51.74900455 -52.79296875 51.15625 C-51.53871094 50.99769531 -50.28445312 50.83914062 -48.9921875 50.67578125 C-48.03957031 50.56621094 -47.08695313 50.45664063 -46.10546875 50.34375 C-46.10546875 49.68375 -46.10546875 49.02375 -46.10546875 48.34375 C-44.90921875 48.158125 -43.71296875 47.9725 -42.48046875 47.78125 C-37.33334929 46.46941778 -34.86090787 43.77305401 -32.10546875 39.34375 C-28.47894053 32.93916432 -28.8821427 26.12120335 -29.30322266 18.9909668 C-29.54878375 12.68388774 -28.04945679 7.53230768 -23.69189453 2.81274414 C-16.46389562 -3.56183676 -8.38829417 -4.6325885 0 0 Z " fill="white" transform="translate(139.10546875,32.65625)"/>
<path d="M0 0 C6.47199191 5.802895 9.52410412 13.75897849 10.29296875 22.23046875 C10.68287472 32.24325406 7.73441946 41.29536386 1.078125 48.86328125 C-6.26139331 55.21060542 -13.76834969 57.35904035 -23.34375 57.109375 C-31.4006326 56.34030893 -38.14010768 53.58301244 -43.921875 47.86328125 C-51.26579016 38.90370476 -52.76452492 30.26623744 -51.921875 18.86328125 C-50.60084433 10.42069431 -46.58796163 3.68947229 -39.96875 -1.73828125 C-27.29896678 -10.26793846 -12.15965065 -8.56702659 0 0 Z M-28.921875 10.86328125 C-34.02207331 16.23191104 -34.21413733 20.7829507 -34.13671875 27.9140625 C-33.76996781 32.94855266 -32.11607699 35.66907926 -28.609375 39.17578125 C-25.48090787 41.14016758 -23.61945891 41.78932957 -19.921875 41.86328125 C-15.50739504 40.56938195 -13.41761289 39.48947648 -10.546875 35.86328125 C-7.64334964 30.50292674 -7.27460511 25.85717779 -7.921875 19.86328125 C-9.1898738 15.94759584 -10.93661039 12.88138802 -13.796875 9.92578125 C-19.54900795 7.04971477 -23.37209258 7.78006879 -28.921875 10.86328125 Z " fill="white" transform="translate(1121.921875,63.13671875)"/>
<path d="M0 0 C6.88967779 4.77422303 11.97324161 10.73706196 14 19 C15.70931112 29.30470418 14.90187098 39.12875018 9 48 C3.80640089 54.61372386 -2.78166599 58.32182874 -11 60 C-20.04796531 60.89453142 -27.99874925 59.46181522 -35.55078125 54.234375 C-41.55042774 49.24612554 -45.53079673 43.7369053 -47 36 C-47.77750674 24.45211298 -47.28562747 15.13035628 -39.875 5.6875 C-29.34000887 -5.55285771 -13.29013855 -6.86657158 0 0 Z M-24 14 C-29.30812517 19.72718768 -29.35180636 23.85119927 -29.2734375 31.5 C-28.89740241 36.31324912 -28.1596485 38.35425173 -25 42 C-21.20568409 44.29090772 -18.80185158 45 -14.375 45 C-9.67992089 43.60886545 -7.42458943 41.484749 -4.9921875 37.2421875 C-2.25376804 31.14858743 -2.55477366 25.17162629 -4.72265625 18.9140625 C-6.39546187 15.48155226 -8.21772607 13.59577327 -11.625 12.0625 C-16.55115905 10.51167215 -19.56756437 11.4869673 -24 14 Z " fill="white" transform="translate(1048,60)"/>
<path d="M0 0 C6.6 0.33 13.2 0.66 20 1 C20 25.75 20 50.5 20 76 C32.54 76 45.08 76 58 76 C59 80 59 80 59 95 C39.86 94.67 20.72 94.34 1 94 C0.67 62.98 0.34 31.96 0 0 Z " fill="white" transform="translate(172,23)"/>
<path d="M0 0 C3.68208765 2.75860586 7.15754373 5.39021874 9.5546875 9.3828125 C8.21155529 13.41220914 6.36429907 14.01297937 2.7421875 16.1328125 C1.68386719 16.76703125 0.62554688 17.40125 -0.46484375 18.0546875 C-3.4453125 19.3828125 -3.4453125 19.3828125 -5.70703125 19.21484375 C-7.4453125 18.3828125 -7.4453125 18.3828125 -9.4453125 16.3203125 C-11.46004204 13.91894902 -11.46004204 13.91894902 -15.4453125 14.3828125 C-15.4453125 13.7228125 -15.4453125 13.0628125 -15.4453125 12.3828125 C-17.0953125 12.3828125 -18.7453125 12.3828125 -20.4453125 12.3828125 C-20.7753125 13.0428125 -21.1053125 13.7028125 -21.4453125 14.3828125 C-22.2084375 14.6303125 -22.9715625 14.8778125 -23.7578125 15.1328125 C-27.34616497 16.80181365 -29.03262995 18.7710773 -30.4453125 22.3828125 C-32.25094298 31.01790248 -31.67320273 38.34730374 -26.8828125 45.8203125 C-23.06680286 48.26647253 -18.88173232 48.7393623 -14.4453125 49.3828125 C-13.9503125 48.3928125 -13.9503125 48.3928125 -13.4453125 47.3828125 C-12.6409375 47.0734375 -11.8365625 46.7640625 -11.0078125 46.4453125 C-8.14667291 45.53733961 -8.14667291 45.53733961 -6.4453125 42.3828125 C-2.53417224 43.05681968 0.42587932 44.92537283 3.8046875 46.9453125 C4.88234375 47.58597656 5.96 48.22664063 7.0703125 48.88671875 C7.89015625 49.38042969 8.71 49.87414062 9.5546875 50.3828125 C7.64926338 56.03103399 4.32301159 58.96802011 -0.4453125 62.3828125 C-3.8828125 63.6953125 -3.8828125 63.6953125 -6.4453125 64.3828125 C-6.7753125 65.0428125 -7.1053125 65.7028125 -7.4453125 66.3828125 C-14.7053125 66.3828125 -21.9653125 66.3828125 -29.4453125 66.3828125 C-29.4453125 65.7228125 -29.4453125 65.0628125 -29.4453125 64.3828125 C-30.6828125 64.104375 -30.6828125 64.104375 -31.9453125 63.8203125 C-41.48257947 59.90322071 -45.56101363 52.57610116 -49.4453125 43.3828125 C-52.38227153 34.57193541 -51.46424497 22.21684773 -47.76953125 13.77734375 C-42.9763498 5.11002744 -37.38514291 -0.17137498 -28.2578125 -3.9296875 C-18.36974012 -5.71278252 -8.56222739 -5.66255933 0 0 Z " fill="white" transform="translate(716.4453125,51.6171875)"/>
<path d="M0 0 C21.78 0 43.56 0 66 0 C66 4.95 66 9.9 66 15 C57.75 15 49.5 15 41 15 C41 37.77 41 60.54 41 84 C35.39 84 29.78 84 24 84 C24 61.23 24 38.46 24 15 C16.08 15 8.16 15 0 15 C0 10.05 0 5.1 0 0 Z " fill="white" transform="translate(941,34)"/>
<path d="M0 0 C6.6 0 13.2 0 20 0 C19.67 6.6 19.34 13.2 19 20 C22.1865625 19.9690625 22.1865625 19.9690625 25.4375 19.9375 C27.62499611 19.91626217 29.81360547 19.92741054 32 20 C34.11925604 22.11925604 33.41831017 26.6196093 33.5625 29.5625 C33.60568359 30.36880859 33.64886719 31.17511719 33.69335938 32.00585938 C33.79975262 34.00368805 33.90040888 36.0018207 34 38 C29.05 37.67 24.1 37.34 19 37 C19.33 48.22 19.66 59.44 20 71 C24.71058562 72.3721042 24.71058562 72.3721042 28 71 C28.12375 72.299375 28.2475 73.59875 28.375 74.9375 C28.82808734 79.14188396 29.65711005 83.15407801 30.6953125 87.25 C30.84613281 88.11625 30.84613281 88.11625 31 89 C29.17916036 90.82083964 26.51987883 90.30044708 24.0625 90.375 C17.35262828 90.30871148 12.40631856 89.03712057 7 85 C1.57252004 79.27168974 0.85425588 73.99461922 0.90234375 66.39453125 C0.9037587 65.55532639 0.90517365 64.71612152 0.90663147 63.85148621 C0.91222785 61.17178784 0.92477965 58.4921731 0.9375 55.8125 C0.94251547 53.99544392 0.94707829 52.17838652 0.95117188 50.36132812 C0.96219609 45.90751987 0.97945822 41.45377411 1 37 C-2.63 37 -6.26 37 -10 37 C-10.33 31.06 -10.66 25.12 -11 19 C-7.37 19.33 -3.74 19.66 0 20 C0 13.4 0 6.8 0 0 Z " fill="white" transform="translate(866,28)"/>
<path d="M0 0 C5.94 0 11.88 0 18 0 C18 28.38 18 56.76 18 86 C12.06 86 6.12 86 0 86 C0 57.62 0 29.24 0 0 Z " fill="white" transform="translate(1141,32)"/>
<path d="M0 0 C0.33 0 0.66 0 1 0 C2.19388403 29.13902594 2.19388403 29.13902594 2 42 C1.01 42.495 1.01 42.495 0 43 C-2.30764912 28.86564914 -0.80863891 14.22338085 0 0 Z " fill="white" transform="translate(32,85)"/>
<path d="M0 0 C2.8125 1.3125 2.8125 1.3125 4.8125 3.3125 C-4.6875 3.3125 -4.6875 3.3125 -8.1875 2.3125 C-5.07236375 -0.06966301 -3.92835168 -0.84729154 0 0 Z " fill="white" transform="translate(127.1875,123.6875)"/>
<path d="M0 0 C0 3 0 3 -1.53125 4.60546875 C-2.1809375 5.12753906 -2.830625 5.64960937 -3.5 6.1875 C-4.1496875 6.71730469 -4.799375 7.24710938 -5.46875 7.79296875 C-5.9740625 8.19128906 -6.479375 8.58960938 -7 9 C-5.27845212 5.23511958 -3.00765886 2.84936103 0 0 Z " fill="white" transform="translate(766,47)"/>
<path d="M0 0 C0.66 0.33 1.32 0.66 2 1 C-0.31 3.31 -2.62 5.62 -5 8 C-5 5 -5 5 -2.5 2.3125 C-1.675 1.549375 -0.85 0.78625 0 0 Z " fill="white" transform="translate(239,51)"/>
<path d="M0 0 C0 3.10551666 -0.5393715 4.35261084 -2 7 C-2.6875 5.1875 -2.6875 5.1875 -3 3 C-1.5625 1.25 -1.5625 1.25 0 0 Z " fill="white" transform="translate(769,73)"/>
<path d="M0 0 C2.62187494 1.04874998 3.79371361 1.64931313 5.25 4.125 C5.4975 4.74375 5.745 5.3625 6 6 C3.97945196 4.35830472 1.97956942 2.69088222 0 1 C0 0.67 0 0.34 0 0 Z " fill="white" transform="translate(478,52)"/>
<path d="M0 0 C0.66 0.33 1.32 0.66 2 1 C-0.97 3.475 -0.97 3.475 -4 6 C-2.84826645 3.53199953 -1.95216435 1.95216435 0 0 Z " fill="white" transform="translate(368,51)"/>
<path d="M0 0 C2.62187494 1.04874998 3.79371361 1.64931313 5.25 4.125 C5.4975 4.74375 5.745 5.3625 6 6 C3.97945196 4.35830472 1.97956942 2.69088222 0 1 C0 0.67 0 0.34 0 0 Z " fill="white" transform="translate(344,51)"/>
<path d="M0 0 C0.66 0.33 1.32 0.66 2 1 C-0.97 3.475 -0.97 3.475 -4 6 C-2.84826645 3.53199953 -1.95216435 1.95216435 0 0 Z " fill="white" transform="translate(116,32)"/>
<path d="M0 0 C0 0.99 0 1.98 0 3 C-2 4.6875 -2 4.6875 -4 6 C-2.84826645 3.53199953 -1.95216435 1.95216435 0 0 Z " fill="white" transform="translate(782,59)"/>
<path d="M0 0 C0.66 0.33 1.32 0.66 2 1 C0.35 2.32 -1.3 3.64 -3 5 C-1.125 1.125 -1.125 1.125 0 0 Z " fill="white" transform="translate(609,78)"/>
<path d="M0 0 C0.66 0.33 1.32 0.66 2 1 C0.35 2.32 -1.3 3.64 -3 5 C-1.125 1.125 -1.125 1.125 0 0 Z " fill="white" transform="translate(611,51)"/>
<path d="M0 0 C1.98 0.99 1.98 0.99 4 2 C4 2.99 4 3.98 4 5 C2.68 3.35 1.36 1.7 0 0 Z " fill="white" transform="translate(594,30)"/>
<path d="M0 0 C1.32 1.32 2.64 2.64 4 4 C2.68 3.34 1.36 2.68 0 2 C0 1.34 0 0.68 0 0 Z " fill="white" transform="translate(302,110)"/>
<path d="M0 0 C1.32 1.32 2.64 2.64 4 4 C2.68 3.34 1.36 2.68 0 2 C0 1.34 0 0.68 0 0 Z " fill="white" transform="translate(250,94)"/>
<path d="M0 0 C0 0.99 0 1.98 0 3 C-0.99 3 -1.98 3 -3 3 C-2.01 2.01 -1.02 1.02 0 0 Z " fill="white" transform="translate(103,74)"/>
<path d="M0 0 C1.98 0.99 1.98 0.99 4 2 C3.67 2.66 3.34 3.32 3 4 C2.01 2.68 1.02 1.36 0 0 Z " fill="white" transform="translate(843,53)"/>
<path d="M0 0 C0.66 0.33 1.32 0.66 2 1 C0.68 1.99 -0.64 2.98 -2 4 C-1.34 2.68 -0.68 1.36 0 0 Z " fill="white" transform="translate(675,53)"/>
<path d="M0 0 C1.98 0.99 1.98 0.99 4 2 C3.67 2.66 3.34 3.32 3 4 C2.01 2.68 1.02 1.36 0 0 Z " fill="white" transform="translate(650,52)"/>
<path d="M0 0 C1.485 0.99 1.485 0.99 3 2 C2.67 2.66 2.34 3.32 2 4 C1.34 2.68 0.68 1.36 0 0 Z " fill="white" transform="translate(284,55)"/>
<path d="M0 0 C1.98 0.99 1.98 0.99 4 2 C3.01 2 2.02 2 1 2 C0.67 1.34 0.34 0.68 0 0 Z " fill="white" transform="translate(140,32)"/>
<path d="M0 0 C0 0.99 0 1.98 0 3 C-0.66 2.67 -1.32 2.34 -2 2 C-1.34 1.34 -0.68 0.68 0 0 Z " fill="white" transform="translate(286,108)"/>
<path d="M0 0 C0 0.99 0 1.98 0 3 C-0.66 2.67 -1.32 2.34 -2 2 C-1.34 1.34 -0.68 0.68 0 0 Z " fill="white" transform="translate(399,96)"/>
<path d="M0 0 C0.66 0.33 1.32 0.66 2 1 C1.01 1.66 0.02 2.32 -1 3 C-0.67 2.01 -0.34 1.02 0 0 Z " fill="white" transform="translate(303,79)"/>
<path d="M0 0 C0.99 0.33 1.98 0.66 3 1 C2.67 1.66 2.34 2.32 2 3 C1.34 2.01 0.68 1.02 0 0 Z " fill="white" transform="translate(267,68)"/>
<path d="M0 0 C0.33 0.99 0.66 1.98 1 3 C0.01 3.495 0.01 3.495 -1 4 C-0.67 2.68 -0.34 1.36 0 0 Z " fill="white" transform="translate(107,67)"/>
<path d="M0 0 C0.66 0.33 1.32 0.66 2 1 C1.01 1.66 0.02 2.32 -1 3 C-0.67 2.01 -0.34 1.02 0 0 Z " fill="white" transform="translate(252,67)"/>
<path d="M0 0 C0.66 0.33 1.32 0.66 2 1 C0.68 1.33 -0.64 1.66 -2 2 C-1.34 1.34 -0.68 0.68 0 0 Z " fill="white" transform="translate(578,63)"/>
<path d="M0 0 C0 0.99 0 1.98 0 3 C-0.66 2.67 -1.32 2.34 -2 2 C-1.34 1.34 -0.68 0.68 0 0 Z " fill="white" transform="translate(144,62)"/>
<path d="M0 0 C0.99 0.33 1.98 0.66 3 1 C2.67 1.66 2.34 2.32 2 3 C1.34 2.01 0.68 1.02 0 0 Z " fill="white" transform="translate(579,45)"/>
<path d="M0 0 C0.66 0.33 1.32 0.66 2 1 C1.01 1 0.02 1 -1 1 C-0.67 0.67 -0.34 0.34 0 0 Z " fill="white" transform="translate(110,168)"/>
<path d="M0 0 C0.66 0.33 1.32 0.66 2 1 C1.01 1 0.02 1 -1 1 C-0.67 0.67 -0.34 0.34 0 0 Z " fill="white" transform="translate(118,163)"/>
<path d="M0 0 C0.66 0.33 1.32 0.66 2 1 C1.01 1 0.02 1 -1 1 C-0.67 0.67 -0.34 0.34 0 0 Z " fill="white" transform="translate(126,158)"/>
<path d="M0 0 C0.66 0.33 1.32 0.66 2 1 C1.01 1 0.02 1 -1 1 C-0.67 0.67 -0.34 0.34 0 0 Z " fill="white" transform="translate(82,147)"/>
<path d="M0 0 C0.66 0.33 1.32 0.66 2 1 C1.01 1 0.02 1 -1 1 C-0.67 0.67 -0.34 0.34 0 0 Z " fill="white" transform="translate(90,142)"/>
<path d="M0 0 C0.66 0.33 1.32 0.66 2 1 C1.01 1 0.02 1 -1 1 C-0.67 0.67 -0.34 0.34 0 0 Z " fill="white" transform="translate(98,137)"/>
<path d="M0 0 C0.66 0.33 1.32 0.66 2 1 C1.01 1 0.02 1 -1 1 C-0.67 0.67 -0.34 0.34 0 0 Z " fill="white" transform="translate(101,135)"/>
<path d="M0 0 C0.66 0.33 1.32 0.66 2 1 C1.01 1 0.02 1 -1 1 C-0.67 0.67 -0.34 0.34 0 0 Z " fill="white" transform="translate(106,132)"/>
<path d="M0 0 C0.66 0.33 1.32 0.66 2 1 C1.01 1 0.02 1 -1 1 C-0.67 0.67 -0.34 0.34 0 0 Z " fill="white" transform="translate(109,130)"/>
<path d="M0 0 C0.66 0.33 1.32 0.66 2 1 C1.01 1 0.02 1 -1 1 C-0.67 0.67 -0.34 0.34 0 0 Z " fill="white" transform="translate(114,127)"/>
<path d="M0 0 C0.66 0.33 1.32 0.66 2 1 C1.01 1 0.02 1 -1 1 C-0.67 0.67 -0.34 0.34 0 0 Z " fill="white" transform="translate(117,125)"/>
<path d="M0 0 C0.66 0.33 1.32 0.66 2 1 C1.01 1 0.02 1 -1 1 C-0.67 0.67 -0.34 0.34 0 0 Z " fill="white" transform="translate(122,122)"/>
<path d="M0 0 C0.66 0.33 1.32 0.66 2 1 C1.01 1 0.02 1 -1 1 C-0.67 0.67 -0.34 0.34 0 0 Z " fill="white" transform="translate(97,119)"/>
<path d="M0 0 C0.99 0.33 1.98 0.66 3 1 C2.01 1 1.02 1 0 1 C0 0.67 0 0.34 0 0 Z " fill="white" transform="translate(71,119)"/>
<path d="M0 0 C0.99 0.495 0.99 0.495 2 1 C1.67 1.66 1.34 2.32 1 3 C0.67 2.01 0.34 1.02 0 0 Z " fill="white" transform="translate(768,115)"/>
<path d="M0 0 C0.99 0.495 0.99 0.495 2 1 C1.67 1.66 1.34 2.32 1 3 C0.67 2.01 0.34 1.02 0 0 Z " fill="white" transform="translate(68,115)"/>
<path d="M0 0 C0.99 0.495 0.99 0.495 2 1 C1.67 1.66 1.34 2.32 1 3 C0.67 2.01 0.34 1.02 0 0 Z " fill="white" transform="translate(791,112)"/>
<path d="M0 0 C0.66 0.33 1.32 0.66 2 1 C1.01 1 0.02 1 -1 1 C-0.67 0.67 -0.34 0.34 0 0 Z " fill="white" transform="translate(717,113)"/>
<path d="M0 0 C0.99 0.33 1.98 0.66 3 1 C2.01 1 1.02 1 0 1 C0 0.67 0 0.34 0 0 Z " fill="white" transform="translate(609,113)"/>
<path d="M0 0 C0.66 0.33 1.32 0.66 2 1 C1.01 1 0.02 1 -1 1 C-0.67 0.67 -0.34 0.34 0 0 Z " fill="white" transform="translate(479,112)"/>
<path d="M0 0 C0.99 0.495 0.99 0.495 2 1 C1.67 1.66 1.34 2.32 1 3 C0.67 2.01 0.34 1.02 0 0 Z " fill="white" transform="translate(607,110)"/>
<path d="M0 0 C0.99 0.33 1.98 0.66 3 1 C2.01 1 1.02 1 0 1 C0 0.67 0 0.34 0 0 Z " fill="white" transform="translate(364,111)"/>
<path d="M0 0 C0.99 0.495 0.99 0.495 2 1 C1.67 1.66 1.34 2.32 1 3 C0.67 2.01 0.34 1.02 0 0 Z " fill="white" transform="translate(868,108)"/>
<path d="M0 0 C0.99 0.495 0.99 0.495 2 1 C1.67 1.66 1.34 2.32 1 3 C0.67 2.01 0.34 1.02 0 0 Z " fill="white" transform="translate(362,108)"/>
<path d="M0 0 C0.99 0.495 0.99 0.495 2 1 C1.67 1.66 1.34 2.32 1 3 C0.67 2.01 0.34 1.02 0 0 Z " fill="white" transform="translate(233,106)"/>
<path d="M0 0 C0.99 0.495 0.99 0.495 2 1 C1.67 1.66 1.34 2.32 1 3 C0.67 2.01 0.34 1.02 0 0 Z " fill="white" transform="translate(786,105)"/>
<path d="M0 0 C0.99 0.495 0.99 0.495 2 1 C1.67 1.66 1.34 2.32 1 3 C0.67 2.01 0.34 1.02 0 0 Z " fill="white" transform="translate(430,105)"/>
<path d="M0 0 C0.99 0.495 0.99 0.495 2 1 C1.67 1.66 1.34 2.32 1 3 C0.67 2.01 0.34 1.02 0 0 Z " fill="white" transform="translate(670,104)"/>
<path d="M0 0 C0 3 0 3 0 3 Z " fill="white" transform="translate(851,104)"/>
<path d="M0 0 C0.99 0.495 0.99 0.495 2 1 C1.67 1.66 1.34 2.32 1 3 C0.67 2.01 0.34 1.02 0 0 Z " fill="white" transform="translate(759,102)"/>
<path d="M0 0 C0 3 0 3 0 3 Z " fill="white" transform="translate(290,103)"/>
<path d="M0 0 C0.99 0.495 0.99 0.495 2 1 C1.67 1.66 1.34 2.32 1 3 C0.67 2.01 0.34 1.02 0 0 Z " fill="white" transform="translate(757,99)"/>
<path d="M0 0 C0.99 0.495 0.99 0.495 2 1 C1.67 1.66 1.34 2.32 1 3 C0.67 2.01 0.34 1.02 0 0 Z " fill="white" transform="translate(781,98)"/>
<path d="M0 0 C0.66 0.33 1.32 0.66 2 1 C1.01 1 0.02 1 -1 1 C-0.67 0.67 -0.34 0.34 0 0 Z " fill="white" transform="translate(830,96)"/>
<path d="M0 0 C0.99 0.495 0.99 0.495 2 1 C1.67 1.66 1.34 2.32 1 3 C0.67 2.01 0.34 1.02 0 0 Z " fill="white" transform="translate(447,93)"/>
<path d="M0 0 C0 3 0 3 0 3 Z " fill="white" transform="translate(834,92)"/>
<path d="M0 0 C0.99 0.495 0.99 0.495 2 1 C1.67 1.66 1.34 2.32 1 3 C0.67 2.01 0.34 1.02 0 0 Z " fill="white" transform="translate(776,91)"/>
<path d="M0 0 C0 3 0 3 0 3 Z " fill="white" transform="translate(709,92)"/>
<path d="M0 0 C0 3 0 3 0 3 Z " fill="white" transform="translate(68,91)"/>
<path d="M0 0 C0.66 0.33 1.32 0.66 2 1 C1.01 1 0.02 1 -1 1 C-0.67 0.67 -0.34 0.34 0 0 Z " fill="white" transform="translate(73,86)"/>
<path d="M0 0 C0.99 0.495 0.99 0.495 2 1 C1.67 1.66 1.34 2.32 1 3 C0.67 2.01 0.34 1.02 0 0 Z " fill="white" transform="translate(771,84)"/>
<path d="M0 0 C0.99 0.33 1.98 0.66 3 1 C2.01 1 1.02 1 0 1 C0 0.67 0 0.34 0 0 Z " fill="white" transform="translate(367,82)"/>
<path d="M0 0 C0.99 0.495 0.99 0.495 2 1 C1.67 1.66 1.34 2.32 1 3 C0.67 2.01 0.34 1.02 0 0 Z " fill="white" transform="translate(364,78)"/>
<path d="M0 0 C0 3 0 3 0 3 Z " fill="white" transform="translate(109,79)"/>
<path d="M0 0 C0.99 0.33 1.98 0.66 3 1 C2.01 1 1.02 1 0 1 C0 0.67 0 0.34 0 0 Z " fill="white" transform="translate(411,77)"/>
<path d="M0 0 C0.66 0.33 1.32 0.66 2 1 C1.01 1 0.02 1 -1 1 C-0.67 0.67 -0.34 0.34 0 0 Z " fill="white" transform="translate(612,76)"/>
<path d="M0 0 C0.66 0.33 1.32 0.66 2 1 C1.01 1 0.02 1 -1 1 C-0.67 0.67 -0.34 0.34 0 0 Z " fill="white" transform="translate(307,76)"/>
<path d="M0 0 C0.66 0.33 1.32 0.66 2 1 C1.01 1 0.02 1 -1 1 C-0.67 0.67 -0.34 0.34 0 0 Z " fill="white" transform="translate(115,73)"/>
<path d="M0 0 C0 3 0 3 0 3 Z " fill="white" transform="translate(600,71)"/>
<path d="M0 0 C0.66 0.33 1.32 0.66 2 1 C1.01 1 0.02 1 -1 1 C-0.67 0.67 -0.34 0.34 0 0 Z " fill="white" transform="translate(716,69)"/>
<path d="M0 0 C0.66 0.33 1.32 0.66 2 1 C1.01 1 0.02 1 -1 1 C-0.67 0.67 -0.34 0.34 0 0 Z " fill="white" transform="translate(41,69)"/>
<path d="M0 0 C0.66 0.33 1.32 0.66 2 1 C1.01 1 0.02 1 -1 1 C-0.67 0.67 -0.34 0.34 0 0 Z " fill="white" transform="translate(450,67)"/>
<path d="M0 0 C0.66 0.33 1.32 0.66 2 1 C1.01 1 0.02 1 -1 1 C-0.67 0.67 -0.34 0.34 0 0 Z " fill="white" transform="translate(49,64)"/>
<path d="M0 0 C0 3 0 3 0 3 Z " fill="white" transform="translate(429,60)"/>
<path d="M0 0 C0.66 0.33 1.32 0.66 2 1 C1.01 1 0.02 1 -1 1 C-0.67 0.67 -0.34 0.34 0 0 Z " fill="white" transform="translate(57,59)"/>
<path d="M0 0 C0 3 0 3 0 3 Z " fill="white" transform="translate(671,58)"/>
<path d="M0 0 C0 3 0 3 0 3 Z " fill="white" transform="translate(795,57)"/>
<path d="M0 0 C0 3 0 3 0 3 Z " fill="white" transform="translate(431,57)"/>
<path d="M0 0 C0 3 0 3 0 3 Z " fill="white" transform="translate(302,56)"/>
<path d="M0 0 C0.99 0.495 0.99 0.495 2 1 C1.67 1.66 1.34 2.32 1 3 C0.67 2.01 0.34 1.02 0 0 Z " fill="white" transform="translate(413,54)"/>
<path d="M0 0 C0.66 0.33 1.32 0.66 2 1 C1.01 1 0.02 1 -1 1 C-0.67 0.67 -0.34 0.34 0 0 Z " fill="white" transform="translate(2,55)"/>
<path d="M0 0 C0.66 0.33 1.32 0.66 2 1 C1.01 1 0.02 1 -1 1 C-0.67 0.67 -0.34 0.34 0 0 Z " fill="white" transform="translate(5,53)"/>
<path d="M0 0 C0.99 0.33 1.98 0.66 3 1 C2.01 1 1.02 1 0 1 C0 0.67 0 0.34 0 0 Z " fill="white" transform="translate(280,52)"/>
<path d="M0 0 C0.66 0.33 1.32 0.66 2 1 C1.01 1 0.02 1 -1 1 C-0.67 0.67 -0.34 0.34 0 0 Z " fill="white" transform="translate(801,51)"/>
<path d="M0 0 C0.66 0.33 1.32 0.66 2 1 C1.01 1 0.02 1 -1 1 C-0.67 0.67 -0.34 0.34 0 0 Z " fill="white" transform="translate(437,51)"/>
<path d="M0 0 C0.99 0.33 1.98 0.66 3 1 C2.01 1 1.02 1 0 1 C0 0.67 0 0.34 0 0 Z " fill="white" transform="translate(409,51)"/>
<path d="M0 0 C0.66 0.33 1.32 0.66 2 1 C1.01 1 0.02 1 -1 1 C-0.67 0.67 -0.34 0.34 0 0 Z " fill="white" transform="translate(679,50)"/>
<path d="M0 0 C0.66 0.33 1.32 0.66 2 1 C1.01 1 0.02 1 -1 1 C-0.67 0.67 -0.34 0.34 0 0 Z " fill="white" transform="translate(10,50)"/>
<path d="M0 0 C0.66 0.33 1.32 0.66 2 1 C1.01 1 0.02 1 -1 1 C-0.67 0.67 -0.34 0.34 0 0 Z " fill="white" transform="translate(804,49)"/>
<path d="M0 0 C0.99 0.33 1.98 0.66 3 1 C2.01 1 1.02 1 0 1 C0 0.67 0 0.34 0 0 Z " fill="white" transform="translate(646,49)"/>
<path d="M0 0 C0.66 0.33 1.32 0.66 2 1 C1.01 1 0.02 1 -1 1 C-0.67 0.67 -0.34 0.34 0 0 Z " fill="white" transform="translate(614,49)"/>
<path d="M0 0 C0.66 0.33 1.32 0.66 2 1 C1.01 1 0.02 1 -1 1 C-0.67 0.67 -0.34 0.34 0 0 Z " fill="white" transform="translate(440,49)"/>
<path d="M0 0 C0.66 0.33 1.32 0.66 2 1 C1.01 1 0.02 1 -1 1 C-0.67 0.67 -0.34 0.34 0 0 Z " fill="white" transform="translate(371,49)"/>
<path d="M0 0 C0.66 0.33 1.32 0.66 2 1 C1.01 1 0.02 1 -1 1 C-0.67 0.67 -0.34 0.34 0 0 Z " fill="white" transform="translate(309,49)"/>
<path d="M0 0 C0.66 0.33 1.32 0.66 2 1 C1.01 1 0.02 1 -1 1 C-0.67 0.67 -0.34 0.34 0 0 Z " fill="white" transform="translate(13,48)"/>
<path d="M0 0 C0.66 0.33 1.32 0.66 2 1 C1.01 1 0.02 1 -1 1 C-0.67 0.67 -0.34 0.34 0 0 Z " fill="white" transform="translate(21,43)"/>
<path d="M0 0 C0.66 0.33 1.32 0.66 2 1 C1.01 1 0.02 1 -1 1 C-0.67 0.67 -0.34 0.34 0 0 Z " fill="white" transform="translate(29,38)"/>
<path d="M0 0 C0.99 0.495 0.99 0.495 2 1 C1.67 1.66 1.34 2.32 1 3 C0.67 2.01 0.34 1.02 0 0 Z " fill="white" transform="translate(144,35)"/>
<path d="M0 0 C0.66 0.33 1.32 0.66 2 1 C1.01 1 0.02 1 -1 1 C-0.67 0.67 -0.34 0.34 0 0 Z " fill="white" transform="translate(32,36)"/>
<path d="M0 0 C0.66 0.33 1.32 0.66 2 1 C1.01 1 0.02 1 -1 1 C-0.67 0.67 -0.34 0.34 0 0 Z " fill="white" transform="translate(37,33)"/>
<path d="M0 0 C0.66 0.33 1.32 0.66 2 1 C1.01 1 0.02 1 -1 1 C-0.67 0.67 -0.34 0.34 0 0 Z " fill="white" transform="translate(40,31)"/>
<path d="M0 0 C0.66 0.33 1.32 0.66 2 1 C1.01 1 0.02 1 -1 1 C-0.67 0.67 -0.34 0.34 0 0 Z " fill="white" transform="translate(45,28)"/>
<path d="M0 0 C0.66 0.33 1.32 0.66 2 1 C1.01 1 0.02 1 -1 1 C-0.67 0.67 -0.34 0.34 0 0 Z " fill="white" transform="translate(48,26)"/>
<path d="M0 0 C0.66 0.33 1.32 0.66 2 1 C1.01 1 0.02 1 -1 1 C-0.67 0.67 -0.34 0.34 0 0 Z " fill="white" transform="translate(53,23)"/>
<path d="M0 0 C0.66 0.33 1.32 0.66 2 1 C1.01 1 0.02 1 -1 1 C-0.67 0.67 -0.34 0.34 0 0 Z " fill="white" transform="translate(56,21)"/>
<path d="M0 0 C0.66 0.33 1.32 0.66 2 1 C1.01 1 0.02 1 -1 1 C-0.67 0.67 -0.34 0.34 0 0 Z " fill="white" transform="translate(61,18)"/>
<path d="M0 0 C0.66 0.33 1.32 0.66 2 1 C1.01 1 0.02 1 -1 1 C-0.67 0.67 -0.34 0.34 0 0 Z " fill="white" transform="translate(64,16)"/>
<path d="M0 0 C0.66 0.33 1.32 0.66 2 1 C1.01 1 0.02 1 -1 1 C-0.67 0.67 -0.34 0.34 0 0 Z " fill="white" transform="translate(72,11)"/>
<path d="M0 0 C0.99 0.495 0.99 0.495 2 1 C1.01 1.495 1.01 1.495 0 2 C0 1.34 0 0.68 0 0 Z " fill="white" transform="translate(83,185)"/>
<path d="M0 0 C0.66 0.66 1.32 1.32 2 2 C1.34 2 0.68 2 0 2 C0 1.34 0 0.68 0 0 Z " fill="white" transform="translate(674,109)"/>
<path d="M0 0 C0.66 0 1.32 0 2 0 C1.67 0.66 1.34 1.32 1 2 C0.67 1.34 0.34 0.68 0 0 Z " fill="white" transform="translate(725,100)"/>
<path d="M0 0 C3 1 3 1 3 1 Z " fill="white" transform="translate(887,99)"/>
<path d="M0 0 C0.66 0 1.32 0 2 0 C1.67 0.66 1.34 1.32 1 2 C0.67 1.34 0.34 0.68 0 0 Z " fill="white" transform="translate(851,99)"/>
<path d="M0 0 C0.66 0.66 1.32 1.32 2 2 C1.34 2 0.68 2 0 2 C0 1.34 0 0.68 0 0 Z " fill="white" transform="translate(624,97)"/>
<path d="M0 0 C0.33 0.66 0.66 1.32 1 2 C0.34 1.67 -0.32 1.34 -1 1 C-0.67 0.67 -0.34 0.34 0 0 Z " fill="white" transform="translate(707,95)"/>
<path d="M0 0 C0.66 0 1.32 0 2 0 C1.67 0.66 1.34 1.32 1 2 C0.67 1.34 0.34 0.68 0 0 Z " fill="white" transform="translate(377,95)"/>
<path d="M0 0 C0.99 0.495 0.99 0.495 2 1 C1.01 1.495 1.01 1.495 0 2 C0 1.34 0 0.68 0 0 Z " fill="white" transform="translate(751,92)"/>
<path d="M0 0 C0.66 0.66 1.32 1.32 2 2 C1.34 2 0.68 2 0 2 C0 1.34 0 0.68 0 0 Z " fill="white" transform="translate(382,68)"/>
<path d="" fill="white" transform="translate(0,0)"/>
<path d="M0 0 C0.33 0.66 0.66 1.32 1 2 C0.34 1.67 -0.32 1.34 -1 1 C-0.67 0.67 -0.34 0.34 0 0 Z " fill="white" transform="translate(726,63)"/>
<path d="M0 0 C0.99 0.495 0.99 0.495 2 1 C1.01 1.495 1.01 1.495 0 2 C0 1.34 0 0.68 0 0 Z " fill="white" transform="translate(305,52)"/>
<path d="M0 0 C2 1 2 1 2 1 Z " fill="white" transform="translate(77,185)"/>
<path d="M0 0 C2 1 2 1 2 1 Z " fill="white" transform="translate(85,184)"/>
<path d="M0 0 C2 1 2 1 2 1 Z " fill="white" transform="translate(75,184)"/>
<path d="M0 0 C2 1 2 1 2 1 Z " fill="white" transform="translate(88,182)"/>
<path d="M0 0 C2 1 2 1 2 1 Z " fill="white" transform="translate(91,180)"/>
<path d="M0 0 C2 1 2 1 2 1 Z " fill="white" transform="translate(93,179)"/>
<path d="M0 0 C2 1 2 1 2 1 Z " fill="white" transform="translate(66,179)"/>
<path d="M0 0 C2 1 2 1 2 1 Z " fill="white" transform="translate(64,178)"/>
<path d="M0 0 C2 1 2 1 2 1 Z " fill="white" transform="translate(96,177)"/>
<path d="M0 0 C2 1 2 1 2 1 Z " fill="white" transform="translate(62,177)"/>
<path d="M0 0 C2 1 2 1 2 1 Z " fill="white" transform="translate(60,176)"/>
<path d="M0 0 C2 1 2 1 2 1 Z " fill="white" transform="translate(99,175)"/>
<path d="M0 0 C2 1 2 1 2 1 Z " fill="white" transform="translate(58,175)"/>
<path d="M0 0 C2 1 2 1 2 1 Z " fill="white" transform="translate(101,174)"/>
<path d="M0 0 C2 1 2 1 2 1 Z " fill="white" transform="translate(56,174)"/>
<path d="M0 0 C2 1 2 1 2 1 Z " fill="white" transform="translate(104,172)"/>
<path d="M0 0 C2 1 2 1 2 1 Z " fill="white" transform="translate(107,170)"/>
<path d="M0 0 C2 1 2 1 2 1 Z " fill="white" transform="translate(49,170)"/>
<path d="M0 0 C2 1 2 1 2 1 Z " fill="white" transform="translate(47,169)"/>
<path d="M0 0 C2 1 2 1 2 1 Z " fill="white" transform="translate(45,168)"/>
<path d="M0 0 C2 1 2 1 2 1 Z " fill="white" transform="translate(112,167)"/>
<path d="M0 0 C2 1 2 1 2 1 Z " fill="white" transform="translate(43,167)"/>
<path d="M0 0 C2 1 2 1 2 1 Z " fill="white" transform="translate(41,166)"/>
<path d="M0 0 C2 1 2 1 2 1 Z " fill="white" transform="translate(115,165)"/>
<path d="M0 0 C2 1 2 1 2 1 Z " fill="white" transform="translate(39,165)"/>
<path d="M0 0 C2 1 2 1 2 1 Z " fill="white" transform="translate(120,162)"/>
<path d="M0 0 C2 1 2 1 2 1 Z " fill="white" transform="translate(32,161)"/>
<path d="M0 0 C2 1 2 1 2 1 Z " fill="white" transform="translate(123,160)"/>
<path d="M0 0 C2 1 2 1 2 1 Z " fill="white" transform="translate(30,160)"/>
<path d="M0 0 C2 1 2 1 2 1 Z " fill="white" transform="translate(28,159)"/>
<path d="M0 0 C2 1 2 1 2 1 Z " fill="white" transform="translate(26,158)"/>
<path d="M0 0 C2 1 2 1 2 1 Z " fill="white" transform="translate(128,157)"/>
<path d="M0 0 C2 1 2 1 2 1 Z " fill="white" transform="translate(24,157)"/>
<path d="M0 0 C2 1 2 1 2 1 Z " fill="white" transform="translate(22,156)"/>
<path d="M0 0 C2 1 2 1 2 1 Z " fill="white" transform="translate(131,155)"/>
<path d="M0 0 C2 1 2 1 2 1 Z " fill="white" transform="translate(134,153)"/>
<path d="M0 0 C2 1 2 1 2 1 Z " fill="white" transform="translate(136,152)"/>
<path d="M0 0 C2 1 2 1 2 1 Z " fill="white" transform="translate(15,152)"/>
<path d="M0 0 C2 1 2 1 2 1 Z " fill="white" transform="translate(13,151)"/>
<path d="M0 0 C2 1 2 1 2 1 Z " fill="white" transform="translate(139,150)"/>
<path d="M0 0 C2 1 2 1 2 1 Z " fill="white" transform="translate(11,150)"/>
<path d="M0 0 C2 1 2 1 2 1 Z " fill="white" transform="translate(79,149)"/>
<path d="M0 0 C2 1 2 1 2 1 Z " fill="white" transform="translate(9,149)"/>
<path d="M0 0 C2 1 2 1 2 1 Z " fill="white" transform="translate(142,148)"/>
<path d="M0 0 C2 1 2 1 2 1 Z " fill="white" transform="translate(77,148)"/>
<path d="M0 0 C2 1 2 1 2 1 Z " fill="white" transform="translate(7,148)"/>
<path d="M0 0 C2 1 2 1 2 1 Z " fill="white" transform="translate(144,147)"/>
<path d="M0 0 C2 1 2 1 2 1 Z " fill="white" transform="translate(75,147)"/>
<path d="M0 0 C2 1 2 1 2 1 Z " fill="white" transform="translate(5,147)"/>
<path d="M0 0 C2 1 2 1 2 1 Z " fill="white" transform="translate(84,146)"/>
<path d="M0 0 C2 1 2 1 2 1 Z " fill="white" transform="translate(73,146)"/>
<path d="M0 0 C2 1 2 1 2 1 Z " fill="white" transform="translate(147,145)"/>
<path d="M0 0 C2 1 2 1 2 1 Z " fill="white" transform="translate(71,145)"/>
<path d="M0 0 C2 1 2 1 2 1 Z " fill="white" transform="translate(87,144)"/>
<path d="M0 0 C2 1 2 1 2 1 Z " fill="white" transform="translate(69,144)"/>
<path d="M0 0 C2 1 2 1 2 1 Z " fill="white" transform="translate(150,143)"/>
<path d="M0 0 C2 1 2 1 2 1 Z " fill="white" transform="translate(92,141)"/>
<path d="M0 0 C2 1 2 1 2 1 Z " fill="white" transform="translate(64,141)"/>
<path d="M0 0 C2 1 2 1 2 1 Z " fill="white" transform="translate(62,140)"/>
<path d="M0 0 C2 1 2 1 2 1 Z " fill="white" transform="translate(95,139)"/>
<path d="M0 0 C2 1 2 1 2 1 Z " fill="white" transform="translate(60,139)"/>
<path d="M0 0 C2 1 2 1 2 1 Z " fill="white" transform="translate(58,138)"/>
<path d="M0 0 C2 1 2 1 2 1 Z " fill="white" transform="translate(56,137)"/>
<path d="M0 0 C2 1 2 1 2 1 Z " fill="white" transform="translate(54,136)"/>
<path d="M0 0 C2 1 2 1 2 1 Z " fill="white" transform="translate(52,135)"/>
<path d="M0 0 C2 1 2 1 2 1 Z " fill="white" transform="translate(149,134)"/>
<path d="M0 0 C2 1 2 1 2 1 Z " fill="white" transform="translate(103,134)"/>
<path d="M0 0 C2 1 2 1 2 1 Z " fill="white" transform="translate(147,133)"/>
<path d="M0 0 C2 1 2 1 2 1 Z " fill="white" transform="translate(145,132)"/>
<path d="M0 0 C2 1 2 1 2 1 Z " fill="white" transform="translate(47,132)"/>
<path d="M0 0 C2 1 2 1 2 1 Z " fill="white" transform="translate(143,131)"/>
<path d="M0 0 C2 1 2 1 2 1 Z " fill="white" transform="translate(45,131)"/>
<path d="M0 0 C2 1 2 1 2 1 Z " fill="white" transform="translate(141,130)"/>
<path d="M0 0 C2 1 2 1 2 1 Z " fill="white" transform="translate(43,130)"/>
<path d="M0 0 C2 1 2 1 2 1 Z " fill="white" transform="translate(139,129)"/>
<path d="M0 0 C2 1 2 1 2 1 Z " fill="white" transform="translate(111,129)"/>
<path d="M0 0 C2 1 2 1 2 1 Z " fill="white" transform="translate(41,129)"/>
<path d="M0 0 C2 1 2 1 2 1 Z " fill="white" transform="translate(137,128)"/>
<path d="M0 0 C2 1 2 1 2 1 Z " fill="white" transform="translate(39,128)"/>
<path d="M0 0 C2 1 2 1 2 1 Z " fill="white" transform="translate(135,127)"/>
<path d="M0 0 C2 1 2 1 2 1 Z " fill="white" transform="translate(37,127)"/>
<path d="M0 0 C2 1 2 1 2 1 Z " fill="white" transform="translate(35,126)"/>
<path d="M0 0 C2 1 2 1 2 1 Z " fill="white" transform="translate(132,125)"/>
<path d="M0 0 C2 1 2 1 2 1 Z " fill="white" transform="translate(130,124)"/>
<path d="M0 0 C2 1 2 1 2 1 Z " fill="white" transform="translate(119,124)"/>
<path d="M0 0 C2 1 2 1 2 1 Z " fill="white" transform="translate(128,123)"/>
<path d="M0 0 C2 1 2 1 2 1 Z " fill="white" transform="translate(126,122)"/>
<path d="M0 0 C2 1 2 1 2 1 Z " fill="white" transform="translate(76,122)"/>
<path d="M0 0 C2 1 2 1 2 1 Z " fill="white" transform="translate(74,121)"/>
<path d="M0 0 C2 1 2 1 2 1 Z " fill="white" transform="translate(878,117)"/>
<path d="M0 0 C2 1 2 1 2 1 Z " fill="white" transform="translate(636,117)"/>
<path d="M0 0 C2 1 2 1 2 1 Z " fill="white" transform="translate(375,117)"/>
<path d="M0 0 C2 1 2 1 2 1 Z " fill="white" transform="translate(311,117)"/>
<path d="M0 0 C2 1 2 1 2 1 Z " fill="white" transform="translate(247,117)"/>
<path d="M0 0 C2 1 2 1 2 1 Z " fill="white" transform="translate(836,116)"/>
<path d="M0 0 C2 1 2 1 2 1 Z " fill="white" transform="translate(806,116)"/>
<path d="M0 0 C2 1 2 1 2 1 Z " fill="white" transform="translate(712,116)"/>
<path d="M0 0 C2 1 2 1 2 1 Z " fill="white" transform="translate(683,116)"/>
<path d="M0 0 C2 1 2 1 2 1 Z " fill="white" transform="translate(472,116)"/>
<path d="M0 0 C2 1 2 1 2 1 Z " fill="white" transform="translate(442,116)"/>
<path d="M0 0 C2 1 2 1 2 1 Z " fill="white" transform="translate(405,116)"/>
<path d="M0 0 C2 1 2 1 2 1 Z " fill="white" transform="translate(372,116)"/>
<path d="M0 0 C2 1 2 1 2 1 Z " fill="white" transform="translate(274,116)"/>
<path d="" fill="white" transform="translate(0,0)"/>
<path d="M0 0 C2 1 2 1 2 1 Z " fill="white" transform="translate(874,115)"/>
<path d="M0 0 C2 1 2 1 2 1 Z " fill="white" transform="translate(838,115)"/>
<path d="M0 0 C2 1 2 1 2 1 Z " fill="white" transform="translate(804,115)"/>
<path d="M0 0 C2 1 2 1 2 1 Z " fill="white" transform="translate(714,115)"/>
<path d="M0 0 C2 1 2 1 2 1 Z " fill="white" transform="translate(681,115)"/>
<path d="M0 0 C2 1 2 1 2 1 Z " fill="white" transform="translate(474,115)"/>
<path d="M0 0 C2 1 2 1 2 1 Z " fill="white" transform="translate(440,115)"/>
<path d="M0 0 C2 1 2 1 2 1 Z " fill="white" transform="translate(407,115)"/>
<path d="M0 0 C2 1 2 1 2 1 Z " fill="white" transform="translate(370,115)"/>
<path d="M0 0 C2 1 2 1 2 1 Z " fill="white" transform="translate(307,115)"/>
<path d="M0 0 C2 1 2 1 2 1 Z " fill="white" transform="translate(840,114)"/>
<path d="M0 0 C2 1 2 1 2 1 Z " fill="white" transform="translate(679,114)"/>
<path d="M0 0 C2 1 2 1 2 1 Z " fill="white" transform="translate(476,114)"/>
<path d="M0 0 C2 1 2 1 2 1 Z " fill="white" transform="translate(409,114)"/>
<path d="M0 0 C2 1 2 1 2 1 Z " fill="white" transform="translate(368,114)"/>
<path d="M0 0 C2 1 2 1 2 1 Z " fill="white" transform="translate(354,114)"/>
<path d="M0 0 C2 1 2 1 2 1 Z " fill="white" transform="translate(278,114)"/>
<path d="M0 0 C2 1 2 1 2 1 Z " fill="white" transform="translate(241,114)"/>
<path d="" fill="white" transform="translate(0,0)"/>
<path d="M0 0 C2 1 2 1 2 1 Z " fill="white" transform="translate(801,113)"/>
<path d="" fill="white" transform="translate(0,0)"/>
<path d="M0 0 C2 1 2 1 2 1 Z " fill="white" transform="translate(437,113)"/>
<path d="M0 0 C2 1 2 1 2 1 Z " fill="white" transform="translate(280,113)"/>
<path d="M0 0 C2 1 2 1 2 1 Z " fill="white" transform="translate(843,112)"/>
<path d="M0 0 C2 1 2 1 2 1 Z " fill="white" transform="translate(412,112)"/>
<path d="M0 0 C2 1 2 1 2 1 Z " fill="white" transform="translate(238,112)"/>
<path d="" fill="white" transform="translate(0,0)"/>
<path d="" fill="white" transform="translate(0,0)"/>
<path d="" fill="white" transform="translate(0,0)"/>
<path d="" fill="white" transform="translate(0,0)"/>
<path d="" fill="white" transform="translate(0,0)"/>
<path d="" fill="white" transform="translate(0,0)"/>
<path d="" fill="white" transform="translate(0,0)"/>
<path d="" fill="white" transform="translate(0,0)"/>
<path d="" fill="white" transform="translate(0,0)"/>
<path d="" fill="white" transform="translate(0,0)"/>
<path d="" fill="white" transform="translate(0,0)"/>
<path d="" fill="white" transform="translate(0,0)"/>
<path d="" fill="white" transform="translate(0,0)"/>
<path d="" fill="white" transform="translate(0,0)"/>
<path d="" fill="white" transform="translate(0,0)"/>
<path d="" fill="white" transform="translate(0,0)"/>
<path d="" fill="white" transform="translate(0,0)"/>
<path d="" fill="white" transform="translate(0,0)"/>
<path d="" fill="white" transform="translate(0,0)"/>
<path d="" fill="white" transform="translate(0,0)"/>
<path d="M0 0 C2 1 2 1 2 1 Z " fill="white" transform="translate(723,99)"/>
<path d="" fill="white" transform="translate(0,0)"/>
<path d="M0 0 C2 1 2 1 2 1 Z " fill="white" transform="translate(382,99)"/>
<path d="M0 0 C2 1 2 1 2 1 Z " fill="white" transform="translate(849,98)"/>
<path d="M0 0 C2 1 2 1 2 1 Z " fill="white" transform="translate(827,98)"/>
<path d="M0 0 C2 1 2 1 2 1 Z " fill="white" transform="translate(703,98)"/>
<path d="M0 0 C2 1 2 1 2 1 Z " fill="white" transform="translate(692,98)"/>
<path d="M0 0 C2 1 2 1 2 1 Z " fill="white" transform="translate(635,98)"/>
<path d="" fill="white" transform="translate(0,0)"/>
<path d="M0 0 C2 1 2 1 2 1 Z " fill="white" transform="translate(380,98)"/>
<path d="M0 0 C2 1 2 1 2 1 Z " fill="white" transform="translate(330,98)"/>
<path d="M0 0 C2 1 2 1 2 1 Z " fill="white" transform="translate(254,98)"/>
<path d="M0 0 C2 1 2 1 2 1 Z " fill="white" transform="translate(814,97)"/>
<path d="" fill="white" transform="translate(0,0)"/>
<path d="M0 0 C2 1 2 1 2 1 Z " fill="white" transform="translate(720,97)"/>
<path d="M0 0 C2 1 2 1 2 1 Z " fill="white" transform="translate(484,97)"/>
<path d="M0 0 C2 1 2 1 2 1 Z " fill="white" transform="translate(465,97)"/>
<path d="M0 0 C2 1 2 1 2 1 Z " fill="white" transform="translate(450,97)"/>
<path d="M0 0 C2 1 2 1 2 1 Z " fill="white" transform="translate(332,97)"/>
<path d="M0 0 C2 1 2 1 2 1 Z " fill="white" transform="translate(286,97)"/>
<path d="M0 0 C2 1 2 1 2 1 Z " fill="white" transform="translate(267,97)"/>
<path d="M0 0 C2 1 2 1 2 1 Z " fill="white" transform="translate(846,96)"/>
<path d="" fill="white" transform="translate(0,0)"/>
<path d="M0 0 C2 1 2 1 2 1 Z " fill="white" transform="translate(718,96)"/>
<path d="M0 0 C2 1 2 1 2 1 Z " fill="white" transform="translate(482,96)"/>
<path d="M0 0 C2 1 2 1 2 1 Z " fill="white" transform="translate(284,96)"/>
<path d="M0 0 C2 1 2 1 2 1 Z " fill="white" transform="translate(844,95)"/>
<path d="M0 0 C2 1 2 1 2 1 Z " fill="white" transform="translate(716,95)"/>
<path d="M0 0 C2 1 2 1 2 1 Z " fill="white" transform="translate(480,95)"/>
<path d="" fill="white" transform="translate(0,0)"/>
<path d="" fill="white" transform="translate(0,0)"/>
<path d="" fill="white" transform="translate(0,0)"/>
<path d="" fill="white" transform="translate(0,0)"/>
<path d="M0 0 C2 1 2 1 2 1 Z " fill="white" transform="translate(281,94)"/>
<path d="M0 0 C2 1 2 1 2 1 Z " fill="white" transform="translate(841,93)"/>
<path d="M0 0 C2 1 2 1 2 1 Z " fill="white" transform="translate(713,93)"/>
<path d="M0 0 C2 1 2 1 2 1 Z " fill="white" transform="translate(477,93)"/>
<path d="" fill="white" transform="translate(0,0)"/>
<path d="M0 0 C2 1 2 1 2 1 Z " fill="white" transform="translate(279,93)"/>
<path d="M0 0 C2 1 2 1 2 1 Z " fill="white" transform="translate(839,92)"/>
<path d="" fill="white" transform="translate(0,0)"/>
<path d="M0 0 C2 1 2 1 2 1 Z " fill="white" transform="translate(475,92)"/>
<path d="" fill="white" transform="translate(0,0)"/>
<path d="M0 0 C2 1 2 1 2 1 Z " fill="white" transform="translate(277,92)"/>
<path d="" fill="white" transform="translate(0,0)"/>
<path d="" fill="white" transform="translate(0,0)"/>
<path d="M0 0 C2 1 2 1 2 1 Z " fill="white" transform="translate(626,89)"/>
<path d="M0 0 C2 1 2 1 2 1 Z " fill="white" transform="translate(321,89)"/>
<path d="" fill="white" transform="translate(0,0)"/>
<path d="" fill="white" transform="translate(0,0)"/>
<path d="M0 0 C2 1 2 1 2 1 Z " fill="white" transform="translate(374,86)"/>
<path d="" fill="white" transform="translate(0,0)"/>
<path d="" fill="white" transform="translate(0,0)"/>
<path d="M0 0 C2 1 2 1 2 1 Z " fill="white" transform="translate(75,85)"/>
<path d="" fill="white" transform="translate(0,0)"/>
<path d="M0 0 C2 1 2 1 2 1 Z " fill="white" transform="translate(370,84)"/>
<path d="" fill="white" transform="translate(0,0)"/>
<path d="" fill="white" transform="translate(0,0)"/>
<path d="" fill="white" transform="translate(0,0)"/>
<path d="" fill="white" transform="translate(0,0)"/>
<path d="M0 0 C2 1 2 1 2 1 Z " fill="white" transform="translate(587,82)"/>
<path d="M0 0 C2 1 2 1 2 1 Z " fill="white" transform="translate(90,82)"/>
<path d="M0 0 C2 1 2 1 2 1 Z " fill="white" transform="translate(589,81)"/>
<path d="M0 0 C2 1 2 1 2 1 Z " fill="white" transform="translate(592,79)"/>
<path d="M0 0 C2 1 2 1 2 1 Z " fill="white" transform="translate(97,79)"/>
<path d="" fill="white" transform="translate(0,0)"/>
<path d="M0 0 C2 1 2 1 2 1 Z " fill="white" transform="translate(409,76)"/>
<path d="M0 0 C2 1 2 1 2 1 Z " fill="white" transform="translate(407,75)"/>
<path d="" fill="white" transform="translate(0,0)"/>
<path d="M0 0 C2 1 2 1 2 1 Z " fill="white" transform="translate(405,74)"/>
<path d="M0 0 C2 1 2 1 2 1 Z " fill="white" transform="translate(35,73)"/>
<path d="" fill="white" transform="translate(0,0)"/>
<path d="" fill="white" transform="translate(0,0)"/>
<path d="" fill="white" transform="translate(0,0)"/>
<path d="" fill="white" transform="translate(0,0)"/>
<path d="" fill="white" transform="translate(0,0)"/>
<path d="M0 0 C2 1 2 1 2 1 Z " fill="white" transform="translate(117,72)"/>
<path d="" fill="white" transform="translate(0,0)"/>
<path d="M0 0 C2 1 2 1 2 1 Z " fill="white" transform="translate(713,71)"/>
<path d="" fill="white" transform="translate(0,0)"/>
<path d="M0 0 C2 1 2 1 2 1 Z " fill="white" transform="translate(119,71)"/>
<path d="M0 0 C2 1 2 1 2 1 Z " fill="white" transform="translate(38,71)"/>
<path d="" fill="white" transform="translate(0,0)"/>
<path d="" fill="white" transform="translate(0,0)"/>
<path d="" fill="white" transform="translate(0,0)"/>
<path d="M0 0 C2 1 2 1 2 1 Z " fill="white" transform="translate(384,70)"/>
<path d="M0 0 C2 1 2 1 2 1 Z " fill="white" transform="translate(718,68)"/>
<path d="" fill="white" transform="translate(0,0)"/>
<path d="" fill="white" transform="translate(0,0)"/>
<path d="M0 0 C2 1 2 1 2 1 Z " fill="white" transform="translate(135,68)"/>
<path d="M0 0 C2 1 2 1 2 1 Z " fill="white" transform="translate(43,68)"/>
<path d="M0 0 C2 1 2 1 2 1 Z " fill="white" transform="translate(814,67)"/>
<path d="M0 0 C2 1 2 1 2 1 Z " fill="white" transform="translate(720,67)"/>
<path d="M0 0 C2 1 2 1 2 1 Z " fill="white" transform="translate(691,67)"/>
<path d="" fill="white" transform="translate(0,0)"/>
<path d="M0 0 C2 1 2 1 2 1 Z " fill="white" transform="translate(826,66)"/>
<path d="M0 0 C2 1 2 1 2 1 Z " fill="white" transform="translate(816,66)"/>
<path d="M0 0 C2 1 2 1 2 1 Z " fill="white" transform="translate(703,66)"/>
<path d="" fill="white" transform="translate(0,0)"/>
<path d="M0 0 C2 1 2 1 2 1 Z " fill="white" transform="translate(462,66)"/>
<path d="M0 0 C2 1 2 1 2 1 Z " fill="white" transform="translate(452,66)"/>
<path d="M0 0 C2 1 2 1 2 1 Z " fill="white" transform="translate(264,66)"/>
<path d="M0 0 C2 1 2 1 2 1 Z " fill="white" transform="translate(254,66)"/>
<path d="M0 0 C2 1 2 1 2 1 Z " fill="white" transform="translate(139,66)"/>
<path d="M0 0 C2 1 2 1 2 1 Z " fill="white" transform="translate(46,66)"/>
<path d="M0 0 C2 1 2 1 2 1 Z " fill="white" transform="translate(723,65)"/>
<path d="M0 0 C2 1 2 1 2 1 Z " fill="white" transform="translate(626,65)"/>
<path d="" fill="white" transform="translate(0,0)"/>
<path d="" fill="white" transform="translate(0,0)"/>
<path d="" fill="white" transform="translate(0,0)"/>
<path d="" fill="white" transform="translate(0,0)"/>
<path d="" fill="white" transform="translate(0,0)"/>
<path d="" fill="white" transform="translate(0,0)"/>
<path d="" fill="white" transform="translate(0,0)"/>
<path d="" fill="white" transform="translate(0,0)"/>
<path d="" fill="white" transform="translate(0,0)"/>
<path d="" fill="white" transform="translate(0,0)"/>
<path d="M0 0 C2 1 2 1 2 1 Z " fill="white" transform="translate(51,63)"/>
<path d="" fill="white" transform="translate(0,0)"/>
<path d="" fill="white" transform="translate(0,0)"/>
<path d="" fill="white" transform="translate(0,0)"/>
<path d="" fill="white" transform="translate(0,0)"/>
<path d="M0 0 C2 1 2 1 2 1 Z " fill="white" transform="translate(54,61)"/>
<path d="" fill="white" transform="translate(0,0)"/>
<path d="" fill="white" transform="translate(0,0)"/>
<path d="" fill="white" transform="translate(0,0)"/>
<path d="" fill="white" transform="translate(0,0)"/>
<path d="" fill="white" transform="translate(0,0)"/>
<path d="" fill="white" transform="translate(0,0)"/>
<path d="" fill="white" transform="translate(0,0)"/>
<path d="" fill="white" transform="translate(0,0)"/>
<path d="" fill="white" transform="translate(0,0)"/>
<path d="" fill="white" transform="translate(0,0)"/>
<path d="" fill="white" transform="translate(0,0)"/>
<path d="" fill="white" transform="translate(0,0)"/>
<path d="" fill="white" transform="translate(0,0)"/>
<path d="" fill="white" transform="translate(0,0)"/>
<path d="" fill="white" transform="translate(0,0)"/>
<path d="M0 0 C2 1 2 1 2 1 Z " fill="white" transform="translate(59,58)"/>
<path d="M0 0 C2 1 2 1 2 1 Z " fill="white" transform="translate(62,56)"/>
<path d="M0 0 C2 1 2 1 2 1 Z " fill="white" transform="translate(65,54)"/>
<path d="M0 0 C2 1 2 1 2 1 Z " fill="white" transform="translate(67,53)"/>
<path d="M0 0 C2 1 2 1 2 1 Z " fill="white" transform="translate(7,52)"/>
<path d="M0 0 C2 1 2 1 2 1 Z " fill="white" transform="translate(717,51)"/>
<path d="M0 0 C2 1 2 1 2 1 Z " fill="white" transform="translate(70,51)"/>
<path d="M0 0 C2 1 2 1 2 1 Z " fill="white" transform="translate(839,50)"/>
<path d="M0 0 C2 1 2 1 2 1 Z " fill="white" transform="translate(475,50)"/>
<path d="M0 0 C2 1 2 1 2 1 Z " fill="white" transform="translate(277,50)"/>
<path d="M0 0 C2 1 2 1 2 1 Z " fill="white" transform="translate(241,50)"/>
<path d="M0 0 C2 1 2 1 2 1 Z " fill="white" transform="translate(837,49)"/>
<path d="M0 0 C2 1 2 1 2 1 Z " fill="white" transform="translate(714,49)"/>
<path d="M0 0 C2 1 2 1 2 1 Z " fill="white" transform="translate(681,49)"/>
<path d="" fill="white" transform="translate(0,0)"/>
<path d="M0 0 C2 1 2 1 2 1 Z " fill="white" transform="translate(473,49)"/>
<path d="M0 0 C2 1 2 1 2 1 Z " fill="white" transform="translate(406,49)"/>
<path d="M0 0 C2 1 2 1 2 1 Z " fill="white" transform="translate(341,49)"/>
<path d="M0 0 C2 1 2 1 2 1 Z " fill="white" transform="translate(275,49)"/>
<path d="M0 0 C2 1 2 1 2 1 Z " fill="white" transform="translate(243,49)"/>
<path d="M0 0 C2 1 2 1 2 1 Z " fill="white" transform="translate(73,49)"/>
<path d="" fill="white" transform="translate(0,0)"/>
<path d="M0 0 C2 1 2 1 2 1 Z " fill="white" transform="translate(835,48)"/>
<path d="M0 0 C2 1 2 1 2 1 Z " fill="white" transform="translate(712,48)"/>
<path d="M0 0 C2 1 2 1 2 1 Z " fill="white" transform="translate(644,48)"/>
<path d="M0 0 C2 1 2 1 2 1 Z " fill="white" transform="translate(471,48)"/>
<path d="M0 0 C2 1 2 1 2 1 Z " fill="white" transform="translate(339,48)"/>
<path d="M0 0 C2 1 2 1 2 1 Z " fill="white" transform="translate(273,48)"/>
<path d="M0 0 C2 1 2 1 2 1 Z " fill="white" transform="translate(245,48)"/>
<path d="M0 0 C2 1 2 1 2 1 Z " fill="white" transform="translate(75,48)"/>
<path d="M0 0 C2 1 2 1 2 1 Z " fill="white" transform="translate(469,47)"/>
<path d="M0 0 C2 1 2 1 2 1 Z " fill="white" transform="translate(336,47)"/>
<path d="M0 0 C2 1 2 1 2 1 Z " fill="white" transform="translate(15,47)"/>
<path d="M0 0 C2 1 2 1 2 1 Z " fill="white" transform="translate(18,45)"/>
<path d="M0 0 C2 1 2 1 2 1 Z " fill="white" transform="translate(575,43)"/>
<path d="M0 0 C2 1 2 1 2 1 Z " fill="white" transform="translate(23,42)"/>
<path d="" fill="white" transform="translate(0,0)"/>
<path d="" fill="white" transform="translate(0,0)"/>
<path d="" fill="white" transform="translate(0,0)"/>
<path d="M0 0 C2 1 2 1 2 1 Z " fill="white" transform="translate(26,40)"/>
<path d="" fill="white" transform="translate(0,0)"/>
<path d="" fill="white" transform="translate(0,0)"/>
<path d="M0 0 C2 1 2 1 2 1 Z " fill="white" transform="translate(34,35)"/>
<path d="M0 0 C2 1 2 1 2 1 Z " fill="white" transform="translate(138,31)"/>
<path d="M0 0 C2 1 2 1 2 1 Z " fill="white" transform="translate(118,31)"/>
<path d="M0 0 C2 1 2 1 2 1 Z " fill="white" transform="translate(136,30)"/>
<path d="M0 0 C2 1 2 1 2 1 Z " fill="white" transform="translate(42,30)"/>
<path d="M0 0 C2 1 2 1 2 1 Z " fill="white" transform="translate(590,27)"/>
<path d="M0 0 C2 1 2 1 2 1 Z " fill="white" transform="translate(588,26)"/>
<path d="M0 0 C2 1 2 1 2 1 Z " fill="white" transform="translate(50,25)"/>
<path d="M0 0 C2 1 2 1 2 1 Z " fill="white" transform="translate(192,23)"/>
<path d="M0 0 C2 1 2 1 2 1 Z " fill="white" transform="translate(58,20)"/>
<path d="M0 0 C2 1 2 1 2 1 Z " fill="white" transform="translate(66,15)"/>
<path d="M0 0 C2 1 2 1 2 1 Z " fill="white" transform="translate(69,13)"/>
<path d="" fill="white" transform="translate(0,0)"/>
<path d="" fill="white" transform="translate(0,0)"/>
<path d="" fill="white" transform="translate(0,0)"/>
<path d="" fill="white" transform="translate(0,0)"/>
<path d="" fill="white" transform="translate(0,0)"/>
<path d="" fill="white" transform="translate(0,0)"/>
<path d="" fill="white" transform="translate(0,0)"/>
<path d="" fill="white" transform="translate(0,0)"/>
<path d="" fill="white" transform="translate(0,0)"/>
<path d="" fill="white" transform="translate(0,0)"/>
<path d="" fill="white" transform="translate(0,0)"/>
<path d="" fill="white" transform="translate(0,0)"/>
<path d="" fill="white" transform="translate(0,0)"/>
<path d="" fill="white" transform="translate(0,0)"/>
<path d="" fill="white" transform="translate(0,0)"/>
<path d="" fill="white" transform="translate(0,0)"/>
<path d="" fill="white" transform="translate(0,0)"/>
<path d="" fill="white" transform="translate(0,0)"/>
<path d="" fill="white" transform="translate(0,0)"/>
<path d="" fill="white" transform="translate(0,0)"/>
<path d="" fill="white" transform="translate(0,0)"/>
<path d="" fill="white" transform="translate(0,0)"/>
<path d="" fill="white" transform="translate(0,0)"/>
<path d="" fill="white" transform="translate(0,0)"/>
<path d="" fill="white" transform="translate(0,0)"/>
<path d="" fill="white" transform="translate(0,0)"/>
<path d="" fill="white" transform="translate(0,0)"/>
<path d="" fill="white" transform="translate(0,0)"/>
<path d="" fill="white" transform="translate(0,0)"/>
<path d="" fill="white" transform="translate(0,0)"/>
<path d="" fill="white" transform="translate(0,0)"/>
<path d="" fill="white" transform="translate(0,0)"/>
<path d="" fill="white" transform="translate(0,0)"/>
<path d="" fill="white" transform="translate(0,0)"/>
<path d="" fill="white" transform="translate(0,0)"/>
<path d="" fill="white" transform="translate(0,0)"/>
<path d="" fill="white" transform="translate(0,0)"/>
<path d="" fill="white" transform="translate(0,0)"/>
<path d="" fill="white" transform="translate(0,0)"/>
<path d="" fill="white" transform="translate(0,0)"/>
<path d="" fill="white" transform="translate(0,0)"/>
<path d="" fill="white" transform="translate(0,0)"/>
<path d="" fill="white" transform="translate(0,0)"/>
<path d="" fill="white" transform="translate(0,0)"/>
<path d="" fill="white" transform="translate(0,0)"/>
<path d="" fill="white" transform="translate(0,0)"/>
<path d="" fill="white" transform="translate(0,0)"/>
<path d="" fill="white" transform="translate(0,0)"/>
<path d="" fill="white" transform="translate(0,0)"/>
<path d="" fill="white" transform="translate(0,0)"/>
<path d="" fill="white" transform="translate(0,0)"/>
<path d="" fill="white" transform="translate(0,0)"/>
<path d="" fill="white" transform="translate(0,0)"/>
<path d="" fill="white" transform="translate(0,0)"/>
<path d="" fill="white" transform="translate(0,0)"/>
<path d="" fill="white" transform="translate(0,0)"/>
<path d="" fill="white" transform="translate(0,0)"/>
<path d="" fill="white" transform="translate(0,0)"/>
<path d="" fill="white" transform="translate(0,0)"/>
<path d="" fill="white" transform="translate(0,0)"/>
<path d="" fill="white" transform="translate(0,0)"/>
<path d="" fill="white" transform="translate(0,0)"/>
<path d="" fill="white" transform="translate(0,0)"/>
<path d="" fill="white" transform="translate(0,0)"/>
<path d="" fill="white" transform="translate(0,0)"/>
<path d="" fill="white" transform="translate(0,0)"/>
<path d="" fill="white" transform="translate(0,0)"/>
<path d="" fill="white" transform="translate(0,0)"/>
<path d="" fill="white" transform="translate(0,0)"/>
<path d="" fill="white" transform="translate(0,0)"/>
<path d="" fill="white" transform="translate(0,0)"/>
<path d="" fill="white" transform="translate(0,0)"/>
<path d="" fill="white" transform="translate(0,0)"/>
<path d="" fill="white" transform="translate(0,0)"/>
<path d="" fill="white" transform="translate(0,0)"/>
<path d="" fill="white" transform="translate(0,0)"/>
<path d="" fill="white" transform="translate(0,0)"/>
<path d="" fill="white" transform="translate(0,0)"/>
<path d="" fill="white" transform="translate(0,0)"/>
<path d="" fill="white" transform="translate(0,0)"/>
<path d="" fill="white" transform="translate(0,0)"/>
<path d="" fill="white" transform="translate(0,0)"/>
<path d="" fill="white" transform="translate(0,0)"/>
<path d="" fill="white" transform="translate(0,0)"/>
<path d="" fill="white" transform="translate(0,0)"/>
<path d="" fill="white" transform="translate(0,0)"/>
<path d="" fill="white" transform="translate(0,0)"/>
<path d="" fill="white" transform="translate(0,0)"/>
<path d="" fill="white" transform="translate(0,0)"/>
<path d="" fill="white" transform="translate(0,0)"/>
<path d="" fill="white" transform="translate(0,0)"/>
<path d="" fill="white" transform="translate(0,0)"/>
<path d="" fill="white" transform="translate(0,0)"/>
<path d="" fill="white" transform="translate(0,0)"/>
<path d="" fill="white" transform="translate(0,0)"/>
<path d="" fill="white" transform="translate(0,0)"/>
<path d="" fill="white" transform="translate(0,0)"/>
<path d="" fill="white" transform="translate(0,0)"/>
<path d="" fill="white" transform="translate(0,0)"/>
<path d="" fill="white" transform="translate(0,0)"/>
<path d="" fill="white" transform="translate(0,0)"/>
<path d="" fill="white" transform="translate(0,0)"/>
<path d="" fill="white" transform="translate(0,0)"/>
<path d="" fill="white" transform="translate(0,0)"/>
<path d="" fill="white" transform="translate(0,0)"/>
<path d="" fill="white" transform="translate(0,0)"/>
<path d="" fill="white" transform="translate(0,0)"/>
<path d="" fill="white" transform="translate(0,0)"/>
<path d="" fill="white" transform="translate(0,0)"/>
<path d="" fill="white" transform="translate(0,0)"/>
<path d="" fill="white" transform="translate(0,0)"/>
<path d="" fill="white" transform="translate(0,0)"/>
<path d="" fill="white" transform="translate(0,0)"/>
<path d="" fill="white" transform="translate(0,0)"/>
<path d="" fill="white" transform="translate(0,0)"/>
<path d="" fill="white" transform="translate(0,0)"/>
<path d="" fill="white" transform="translate(0,0)"/>
<path d="" fill="white" transform="translate(0,0)"/>
<path d="" fill="white" transform="translate(0,0)"/>
<path d="" fill="white" transform="translate(0,0)"/>
<path d="" fill="white" transform="translate(0,0)"/>
<path d="" fill="white" transform="translate(0,0)"/>
<path d="" fill="white" transform="translate(0,0)"/>
<path d="" fill="white" transform="translate(0,0)"/>
<path d="" fill="white" transform="translate(0,0)"/>
<path d="" fill="white" transform="translate(0,0)"/>
<path d="" fill="white" transform="translate(0,0)"/>
<path d="" fill="white" transform="translate(0,0)"/>
<path d="" fill="white" transform="translate(0,0)"/>
<path d="" fill="white" transform="translate(0,0)"/>
<path d="" fill="white" transform="translate(0,0)"/>
<path d="" fill="white" transform="translate(0,0)"/>
<path d="" fill="white" transform="translate(0,0)"/>
<path d="" fill="white" transform="translate(0,0)"/>
<path d="" fill="white" transform="translate(0,0)"/>
<path d="" fill="white" transform="translate(0,0)"/>
<path d="" fill="white" transform="translate(0,0)"/>
<path d="" fill="white" transform="translate(0,0)"/>
<path d="" fill="white" transform="translate(0,0)"/>
<path d="" fill="white" transform="translate(0,0)"/>
<path d="" fill="white" transform="translate(0,0)"/>
<path d="" fill="white" transform="translate(0,0)"/>
<path d="" fill="white" transform="translate(0,0)"/>
<path d="" fill="white" transform="translate(0,0)"/>
<path d="" fill="white" transform="translate(0,0)"/>
<path d="" fill="white" transform="translate(0,0)"/>
<path d="" fill="white" transform="translate(0,0)"/>
<path d="" fill="white" transform="translate(0,0)"/>
<path d="" fill="white" transform="translate(0,0)"/>
<path d="" fill="white" transform="translate(0,0)"/>
<path d="" fill="white" transform="translate(0,0)"/>
<path d="" fill="white" transform="translate(0,0)"/>
<path d="" fill="white" transform="translate(0,0)"/>
<path d="" fill="white" transform="translate(0,0)"/>
<path d="" fill="white" transform="translate(0,0)"/>
<path d="" fill="white" transform="translate(0,0)"/>
<path d="" fill="white" transform="translate(0,0)"/>
<path d="" fill="white" transform="translate(0,0)"/>
<path d="" fill="white" transform="translate(0,0)"/>
<path d="" fill="white" transform="translate(0,0)"/>
<path d="" fill="white" transform="translate(0,0)"/>
<path d="" fill="white" transform="translate(0,0)"/>
<path d="" fill="white" transform="translate(0,0)"/>
<path d="" fill="white" transform="translate(0,0)"/>
<path d="" fill="white" transform="translate(0,0)"/>
<path d="" fill="white" transform="translate(0,0)"/>
<path d="" fill="white" transform="translate(0,0)"/>
<path d="" fill="white" transform="translate(0,0)"/>
<path d="" fill="white" transform="translate(0,0)"/>
<path d="" fill="white" transform="translate(0,0)"/>
<path d="" fill="white" transform="translate(0,0)"/>
<path d="" fill="white" transform="translate(0,0)"/>
<path d="" fill="white" transform="translate(0,0)"/>
<path d="" fill="white" transform="translate(0,0)"/>
<path d="" fill="white" transform="translate(0,0)"/>
<path d="" fill="white" transform="translate(0,0)"/>
<path d="" fill="white" transform="translate(0,0)"/>
<path d="" fill="white" transform="translate(0,0)"/>
<path d="" fill="white" transform="translate(0,0)"/>
<path d="" fill="white" transform="translate(0,0)"/>
<path d="" fill="white" transform="translate(0,0)"/>
<path d="" fill="white" transform="translate(0,0)"/>
<path d="" fill="white" transform="translate(0,0)"/>
<path d="" fill="white" transform="translate(0,0)"/>
<path d="" fill="white" transform="translate(0,0)"/>
<path d="" fill="white" transform="translate(0,0)"/>
<path d="" fill="white" transform="translate(0,0)"/>
<path d="" fill="white" transform="translate(0,0)"/>
<path d="" fill="white" transform="translate(0,0)"/>
<path d="" fill="white" transform="translate(0,0)"/>
<path d="" fill="white" transform="translate(0,0)"/>
<path d="" fill="white" transform="translate(0,0)"/>
<path d="" fill="white" transform="translate(0,0)"/>
<path d="" fill="white" transform="translate(0,0)"/>
<path d="" fill="white" transform="translate(0,0)"/>
<path d="" fill="white" transform="translate(0,0)"/>
<path d="" fill="white" transform="translate(0,0)"/>
<path d="" fill="white" transform="translate(0,0)"/>
<path d="" fill="white" transform="translate(0,0)"/>
<path d="" fill="white" transform="translate(0,0)"/>
<path d="" fill="white" transform="translate(0,0)"/>
<path d="" fill="white" transform="translate(0,0)"/>
<path d="" fill="white" transform="translate(0,0)"/>
<path d="" fill="white" transform="translate(0,0)"/>
<path d="" fill="white" transform="translate(0,0)"/>
<path d="" fill="white" transform="translate(0,0)"/>
<path d="" fill="white" transform="translate(0,0)"/>
<path d="" fill="white" transform="translate(0,0)"/>
<path d="" fill="white" transform="translate(0,0)"/>
<path d="" fill="white" transform="translate(0,0)"/>
<path d="" fill="white" transform="translate(0,0)"/>
<path d="" fill="white" transform="translate(0,0)"/>
<path d="" fill="white" transform="translate(0,0)"/>
<path d="" fill="white" transform="translate(0,0)"/>
<path d="" fill="white" transform="translate(0,0)"/>
<path d="" fill="white" transform="translate(0,0)"/>
<path d="" fill="white" transform="translate(0,0)"/>
<path d="" fill="white" transform="translate(0,0)"/>
<path d="" fill="white" transform="translate(0,0)"/>
<path d="" fill="white" transform="translate(0,0)"/>
<path d="" fill="white" transform="translate(0,0)"/>
<path d="" fill="white" transform="translate(0,0)"/>
<path d="" fill="white" transform="translate(0,0)"/>
<path d="" fill="white" transform="translate(0,0)"/>
<path d="" fill="white" transform="translate(0,0)"/>
<path d="" fill="white" transform="translate(0,0)"/>
<path d="" fill="white" transform="translate(0,0)"/>
<path d="" fill="white" transform="translate(0,0)"/>
<path d="" fill="white" transform="translate(0,0)"/>
<path d="" fill="white" transform="translate(0,0)"/>
<path d="" fill="white" transform="translate(0,0)"/>
<path d="" fill="white" transform="translate(0,0)"/>
<path d="" fill="white" transform="translate(0,0)"/>
<path d="" fill="white" transform="translate(0,0)"/>
<path d="" fill="white" transform="translate(0,0)"/>
<path d="" fill="white" transform="translate(0,0)"/>
<path d="" fill="white" transform="translate(0,0)"/>
<path d="" fill="white" transform="translate(0,0)"/>
<path d="" fill="white" transform="translate(0,0)"/>
<path d="" fill="white" transform="translate(0,0)"/>
<path d="" fill="white" transform="translate(0,0)"/>
<path d="" fill="white" transform="translate(0,0)"/>
<path d="" fill="white" transform="translate(0,0)"/>
<path d="" fill="white" transform="translate(0,0)"/>
<path d="" fill="white" transform="translate(0,0)"/>
<path d="" fill="white" transform="translate(0,0)"/>
<path d="" fill="white" transform="translate(0,0)"/>
<path d="" fill="white" transform="translate(0,0)"/>
<path d="" fill="white" transform="translate(0,0)"/>
<path d="" fill="white" transform="translate(0,0)"/>
<path d="" fill="white" transform="translate(0,0)"/>
<path d="" fill="white" transform="translate(0,0)"/>
<path d="" fill="white" transform="translate(0,0)"/>
<path d="" fill="white" transform="translate(0,0)"/>
<path d="" fill="white" transform="translate(0,0)"/>
<path d="" fill="white" transform="translate(0,0)"/>
<path d="" fill="white" transform="translate(0,0)"/>
<path d="" fill="white" transform="translate(0,0)"/>
<path d="" fill="white" transform="translate(0,0)"/>
<path d="" fill="white" transform="translate(0,0)"/>
<path d="" fill="white" transform="translate(0,0)"/>
<path d="" fill="white" transform="translate(0,0)"/>
<path d="" fill="white" transform="translate(0,0)"/>
<path d="" fill="white" transform="translate(0,0)"/>
<path d="" fill="white" transform="translate(0,0)"/>
<path d="" fill="white" transform="translate(0,0)"/>
<path d="" fill="white" transform="translate(0,0)"/>
<path d="" fill="white" transform="translate(0,0)"/>
<path d="" fill="white" transform="translate(0,0)"/>
<path d="" fill="white" transform="translate(0,0)"/>
<path d="" fill="white" transform="translate(0,0)"/>
<path d="" fill="white" transform="translate(0,0)"/>
<path d="" fill="white" transform="translate(0,0)"/>
<path d="" fill="white" transform="translate(0,0)"/>
<path d="" fill="white" transform="translate(0,0)"/>
<path d="" fill="white" transform="translate(0,0)"/>
<path d="" fill="white" transform="translate(0,0)"/>
<path d="" fill="white" transform="translate(0,0)"/>
<path d="" fill="white" transform="translate(0,0)"/>
<path d="" fill="white" transform="translate(0,0)"/>
<path d="" fill="white" transform="translate(0,0)"/>
<path d="" fill="white" transform="translate(0,0)"/>
<path d="" fill="white" transform="translate(0,0)"/>
<path d="" fill="white" transform="translate(0,0)"/>
<path d="" fill="white" transform="translate(0,0)"/>
<path d="" fill="white" transform="translate(0,0)"/>
<path d="" fill="white" transform="translate(0,0)"/>
<path d="" fill="white" transform="translate(0,0)"/>
<path d="" fill="white" transform="translate(0,0)"/>
<path d="" fill="white" transform="translate(0,0)"/>
<path d="" fill="white" transform="translate(0,0)"/>
<path d="" fill="white" transform="translate(0,0)"/>
<path d="" fill="white" transform="translate(0,0)"/>
<path d="" fill="white" transform="translate(0,0)"/>
<path d="" fill="white" transform="translate(0,0)"/>
<path d="" fill="white" transform="translate(0,0)"/>
<path d="" fill="white" transform="translate(0,0)"/>
<path d="" fill="white" transform="translate(0,0)"/>
<path d="" fill="white" transform="translate(0,0)"/>
<path d="" fill="white" transform="translate(0,0)"/>
<path d="" fill="white" transform="translate(0,0)"/>
<path d="" fill="white" transform="translate(0,0)"/>
<path d="" fill="white" transform="translate(0,0)"/>
<path d="" fill="white" transform="translate(0,0)"/>
<path d="" fill="white" transform="translate(0,0)"/>
<path d="" fill="white" transform="translate(0,0)"/>
<path d="" fill="white" transform="translate(0,0)"/>
<path d="" fill="white" transform="translate(0,0)"/>
<path d="" fill="white" transform="translate(0,0)"/>
<path d="" fill="white" transform="translate(0,0)"/>
<path d="" fill="white" transform="translate(0,0)"/>
<path d="" fill="white" transform="translate(0,0)"/>
<path d="" fill="white" transform="translate(0,0)"/>
<path d="" fill="white" transform="translate(0,0)"/>
<path d="" fill="white" transform="translate(0,0)"/>
<path d="" fill="white" transform="translate(0,0)"/>
<path d="" fill="white" transform="translate(0,0)"/>
<path d="" fill="white" transform="translate(0,0)"/>
<path d="" fill="white" transform="translate(0,0)"/>
<path d="" fill="white" transform="translate(0,0)"/>
<path d="" fill="white" transform="translate(0,0)"/>
<path d="" fill="white" transform="translate(0,0)"/>
<path d="" fill="white" transform="translate(0,0)"/>
<path d="" fill="white" transform="translate(0,0)"/>
<path d="" fill="white" transform="translate(0,0)"/>
<path d="" fill="white" transform="translate(0,0)"/>
<path d="" fill="white" transform="translate(0,0)"/>
<path d="" fill="white" transform="translate(0,0)"/>
<path d="" fill="white" transform="translate(0,0)"/>
<path d="" fill="white" transform="translate(0,0)"/>
<path d="" fill="white" transform="translate(0,0)"/>
<path d="" fill="white" transform="translate(0,0)"/>
<path d="" fill="white" transform="translate(0,0)"/>
<path d="" fill="white" transform="translate(0,0)"/>
<path d="" fill="white" transform="translate(0,0)"/>
<path d="" fill="white" transform="translate(0,0)"/>
<path d="" fill="white" transform="translate(0,0)"/>
<path d="" fill="white" transform="translate(0,0)"/>
<path d="" fill="white" transform="translate(0,0)"/>
<path d="" fill="white" transform="translate(0,0)"/>
<path d="" fill="white" transform="translate(0,0)"/>
<path d="" fill="white" transform="translate(0,0)"/>
<path d="" fill="white" transform="translate(0,0)"/>
<path d="" fill="white" transform="translate(0,0)"/>
<path d="" fill="white" transform="translate(0,0)"/>
<path d="" fill="white" transform="translate(0,0)"/>
<path d="" fill="white" transform="translate(0,0)"/>
<path d="" fill="white" transform="translate(0,0)"/>
<path d="" fill="white" transform="translate(0,0)"/>
<path d="" fill="white" transform="translate(0,0)"/>
<path d="" fill="white" transform="translate(0,0)"/>
<path d="" fill="white" transform="translate(0,0)"/>
<path d="" fill="white" transform="translate(0,0)"/>
<path d="" fill="white" transform="translate(0,0)"/>
<path d="" fill="white" transform="translate(0,0)"/>
<path d="" fill="white" transform="translate(0,0)"/>
<path d="" fill="white" transform="translate(0,0)"/>
<path d="" fill="white" transform="translate(0,0)"/>
<path d="" fill="white" transform="translate(0,0)"/>
<path d="" fill="white" transform="translate(0,0)"/>
<path d="" fill="white" transform="translate(0,0)"/>
<path d="" fill="white" transform="translate(0,0)"/>
<path d="" fill="white" transform="translate(0,0)"/>
<path d="" fill="white" transform="translate(0,0)"/>
<path d="" fill="white" transform="translate(0,0)"/>
<path d="" fill="white" transform="translate(0,0)"/>
<path d="" fill="white" transform="translate(0,0)"/>
<path d="" fill="white" transform="translate(0,0)"/>
<path d="" fill="white" transform="translate(0,0)"/>
<path d="" fill="white" transform="translate(0,0)"/>
<path d="" fill="white" transform="translate(0,0)"/>
<path d="" fill="white" transform="translate(0,0)"/>
<path d="" fill="white" transform="translate(0,0)"/>
<path d="" fill="white" transform="translate(0,0)"/>
<path d="" fill="white" transform="translate(0,0)"/>
<path d="" fill="white" transform="translate(0,0)"/>
<path d="" fill="white" transform="translate(0,0)"/>
<path d="" fill="white" transform="translate(0,0)"/>
<path d="" fill="white" transform="translate(0,0)"/>
<path d="" fill="white" transform="translate(0,0)"/>
<path d="" fill="white" transform="translate(0,0)"/>
<path d="" fill="white" transform="translate(0,0)"/>
<path d="" fill="white" transform="translate(0,0)"/>
<path d="" fill="white" transform="translate(0,0)"/>
<path d="" fill="white" transform="translate(0,0)"/>
<path d="" fill="white" transform="translate(0,0)"/>
<path d="" fill="white" transform="translate(0,0)"/>
<path d="" fill="white" transform="translate(0,0)"/>
<path d="" fill="white" transform="translate(0,0)"/>
<path d="" fill="white" transform="translate(0,0)"/>
<path d="" fill="white" transform="translate(0,0)"/>
<path d="" fill="white" transform="translate(0,0)"/>
<path d="" fill="white" transform="translate(0,0)"/>
<path d="" fill="white" transform="translate(0,0)"/>
<path d="" fill="white" transform="translate(0,0)"/>
<path d="" fill="white" transform="translate(0,0)"/>
<path d="" fill="white" transform="translate(0,0)"/>
<path d="" fill="white" transform="translate(0,0)"/>
<path d="" fill="white" transform="translate(0,0)"/>
<path d="" fill="white" transform="translate(0,0)"/>
<path d="" fill="white" transform="translate(0,0)"/>
<path d="" fill="white" transform="translate(0,0)"/>
<path d="" fill="white" transform="translate(0,0)"/>
<path d="" fill="white" transform="translate(0,0)"/>
<path d="" fill="white" transform="translate(0,0)"/>
<path d="" fill="white" transform="translate(0,0)"/>
<path d="" fill="white" transform="translate(0,0)"/>
<path d="" fill="white" transform="translate(0,0)"/>
<path d="" fill="white" transform="translate(0,0)"/>
<path d="" fill="white" transform="translate(0,0)"/>
<path d="" fill="white" transform="translate(0,0)"/>
<path d="" fill="white" transform="translate(0,0)"/>
<path d="" fill="white" transform="translate(0,0)"/>
<path d="" fill="white" transform="translate(0,0)"/>
<path d="" fill="white" transform="translate(0,0)"/>
<path d="" fill="white" transform="translate(0,0)"/>
<path d="" fill="white" transform="translate(0,0)"/>
<path d="" fill="white" transform="translate(0,0)"/>
<path d="" fill="white" transform="translate(0,0)"/>
<path d="" fill="white" transform="translate(0,0)"/>
<path d="" fill="white" transform="translate(0,0)"/>
<path d="" fill="white" transform="translate(0,0)"/>
<path d="" fill="white" transform="translate(0,0)"/>
<path d="" fill="white" transform="translate(0,0)"/>
<path d="" fill="white" transform="translate(0,0)"/>
<path d="" fill="white" transform="translate(0,0)"/>
<path d="" fill="white" transform="translate(0,0)"/>
<path d="" fill="white" transform="translate(0,0)"/>
<path d="" fill="white" transform="translate(0,0)"/>
<path d="" fill="white" transform="translate(0,0)"/>
<path d="" fill="white" transform="translate(0,0)"/>
<path d="" fill="white" transform="translate(0,0)"/>
<path d="" fill="white" transform="translate(0,0)"/>
<path d="" fill="white" transform="translate(0,0)"/>
<path d="" fill="white" transform="translate(0,0)"/>
<path d="" fill="white" transform="translate(0,0)"/>
<path d="" fill="white" transform="translate(0,0)"/>
<path d="" fill="white" transform="translate(0,0)"/>
<path d="" fill="white" transform="translate(0,0)"/>
<path d="" fill="white" transform="translate(0,0)"/>
<path d="" fill="white" transform="translate(0,0)"/>
<path d="" fill="white" transform="translate(0,0)"/>
<path d="" fill="white" transform="translate(0,0)"/>
<path d="" fill="white" transform="translate(0,0)"/>
<path d="" fill="white" transform="translate(0,0)"/>
<path d="" fill="white" transform="translate(0,0)"/>
<path d="" fill="white" transform="translate(0,0)"/>
<path d="" fill="white" transform="translate(0,0)"/>
<path d="" fill="white" transform="translate(0,0)"/>
<path d="" fill="white" transform="translate(0,0)"/>
<path d="" fill="white" transform="translate(0,0)"/>
<path d="" fill="white" transform="translate(0,0)"/>
<path d="" fill="white" transform="translate(0,0)"/>
<path d="" fill="white" transform="translate(0,0)"/>
<path d="" fill="white" transform="translate(0,0)"/>
<path d="" fill="white" transform="translate(0,0)"/>
</svg>
